<svg xmlns="http://www.w3.org/2000/svg" viewBox="0 0 50 50"><defs><style>.cls-1{isolation:isolate;}.cls-2{opacity:0.5;mix-blend-mode:multiply;}.cls-3{fill:#d4eae9;}.cls-4{fill:#fff;}.cls-5{fill:#2b2b54;}.cls-6{fill:#88c4c0;}.cls-7{fill:#d2d2db;}</style></defs><title>icon</title><g class="cls-1"><g id="Capa_1" data-name="Capa 1"><g class="cls-2"><circle class="cls-3" cx="23.32" cy="26.16" r="23.21"/></g><g class="cls-2"><circle class="cls-3" cx="26.68" cy="23.84" r="23.21"/></g><rect class="cls-4" x="3.24" y="11.08" width="44.93" height="29.16" rx="8.83" ry="8.83"/><path class="cls-5" d="M45.67,41H5.75a3.24,3.24,0,0,1-3.24-3.24V13.59a3.25,3.25,0,0,1,3.24-3.24H45.67a3.25,3.25,0,0,1,3.24,3.24V37.74A3.25,3.25,0,0,1,45.67,41ZM5.75,11.82A1.77,1.77,0,0,0,4,13.59V37.74a1.77,1.77,0,0,0,1.77,1.77H45.67a1.77,1.77,0,0,0,1.77-1.77V13.59a1.77,1.77,0,0,0-1.77-1.77Z"/><path class="cls-6" d="M6.83,11.68H44.56a2.88,2.88,0,0,1,2.88,2.88v1.88a0,0,0,0,1,0,0H3.94a0,0,0,0,1,0,0V14.56A2.88,2.88,0,0,1,6.83,11.68Z"/><circle class="cls-4" cx="41.81" cy="13.76" r="0.63"/><circle class="cls-4" cx="43.64" cy="13.76" r="0.63"/><circle class="cls-4" cx="45.46" cy="13.76" r="0.63"/><rect class="cls-7" x="5.03" y="17.63" width="13.02" height="10.41"/><rect class="cls-7" x="5.03" y="28.94" width="13.02" height="9.52"/><rect class="cls-3" x="19.2" y="17.63" width="13.02" height="20.83"/><rect class="cls-7" x="33.37" y="17.63" width="13.02" height="13.39"/><rect class="cls-7" x="33.37" y="31.91" width="13.02" height="6.55"/><circle class="cls-6" cx="25.71" cy="42.26" r="0.97"/><path class="cls-5" d="M38.13,44.85H13.29a.74.74,0,1,1,0-1.47H38.13a.74.74,0,1,1,0,1.47Z"/><circle class="cls-6" cx="9.88" cy="6.45" r="0.54"/><circle class="cls-6" cx="19.61" cy="8.17" r="0.86"/><circle class="cls-6" cx="39.81" cy="5.13" r="0.33"/><circle class="cls-5" cx="34.4" cy="7.27" r="0.6"/></g></g></svg>