<svg id="Capa_1" data-name="Capa 1" xmlns="http://www.w3.org/2000/svg" viewBox="0 0 40 40"><defs><style>.cls-1{fill:#fff;}</style></defs><title>icon</title><path class="cls-1" d="M37.5,8.33H2.5A2.51,2.51,0,0,0,0,10.83V34.17a2.51,2.51,0,0,0,2.5,2.5h35a2.51,2.51,0,0,0,2.5-2.5V10.83A2.51,2.51,0,0,0,37.5,8.33Zm.83,25.84a.83.83,0,0,1-.83.83H2.5a.83.83,0,0,1-.83-.83V10.83A.83.83,0,0,1,2.5,10h35a.83.83,0,0,1,.83.83Z"/><path class="cls-1" d="M24.17,3.33H15.83a2.51,2.51,0,0,0-2.5,2.5V9.17a.84.84,0,0,0,.84.83H25.83a.84.84,0,0,0,.84-.83V5.83A2.51,2.51,0,0,0,24.17,3.33Zm.83,5H15V5.83A.83.83,0,0,1,15.83,5h8.34a.83.83,0,0,1,.83.83v2.5Z"/><path class="cls-1" d="M40,19a.83.83,0,0,0-1-.6L25.68,21.82a22.54,22.54,0,0,1-11.36,0L1,18.36A.83.83,0,0,0,0,19a.82.82,0,0,0,.59,1L13.9,23.44a24.24,24.24,0,0,0,6.1.78,24.24,24.24,0,0,0,6.1-.78L39.38,20A.82.82,0,0,0,40,19Z"/><path class="cls-1" d="M20,15a3.34,3.34,0,1,0,3.33,3.33A3.34,3.34,0,0,0,20,15Zm0,5a1.67,1.67,0,1,1,1.67-1.67A1.67,1.67,0,0,1,20,20Z"/></svg>