<svg id="Capa_1" data-name="Capa 1" xmlns="http://www.w3.org/2000/svg" viewBox="0 0 40 40"><defs><style>.cls-1{fill:#fff;}</style></defs><title>icon</title><g id="User"><path class="cls-1" d="M20,27.5c6.2,0,11.25-6.17,11.25-13.75S26.2,0,20,0a10.29,10.29,0,0,0-8,4.13,15.43,15.43,0,0,0-3.2,9.62C8.75,21.33,13.8,27.5,20,27.5Zm0-25c4.82,0,8.75,5.05,8.75,11.25S24.82,25,20,25,11.25,20,11.25,13.75,15.18,2.5,20,2.5ZM28.75,25a1.25,1.25,0,0,0,0,2.5,8.77,8.77,0,0,1,8.75,8.75,1.25,1.25,0,0,1-1.25,1.25H3.75A1.25,1.25,0,0,1,2.5,36.25a8.77,8.77,0,0,1,8.75-8.75,1.25,1.25,0,0,0,0-2.5A11.27,11.27,0,0,0,0,36.25,3.75,3.75,0,0,0,3.75,40h32.5A3.75,3.75,0,0,0,40,36.25,11.27,11.27,0,0,0,28.75,25Z"/></g></svg>