<?xml version="1.0" encoding="utf-8"?>
<!-- Generator: Adobe Illustrator 22.0.1, SVG Export Plug-In . SVG Version: 6.00 Build 0)  -->
<svg version="1.1" id="Capa_1" xmlns="http://www.w3.org/2000/svg" xmlns:xlink="http://www.w3.org/1999/xlink" x="0px" y="0px"
	 viewBox="0 0 25.4 40.3" style="enable-background:new 0 0 25.4 40.3;" xml:space="preserve">
<style type="text/css">
	.st0{fill:#FFFFFF;}
</style>
<g>
	<path class="st0" d="M19.4,21c0.3,0.7,0.6,1.5,0.7,2.3c0.3-0.7,0.8-1.3,1.3-1.8c0.7-0.7,1.4-1.2,2.3-1.6c0.5-0.2,1.1-0.4,1.7-0.5
		v-6.1c-1.4,0.1-2.8,0.4-4,1c-1.6,0.7-3.1,1.6-4.3,2.8c0,0-0.1,0.1-0.1,0.1C18,18.3,18.8,19.6,19.4,21L19.4,21z"/>
	<path class="st0" d="M18.2,21.3c-0.5-1.2-1.2-2.2-1.9-3.2c-0.1-0.2-0.3-0.3-0.4-0.5c-0.1-0.2-0.3-0.3-0.4-0.5
		c-0.1-0.1-0.1-0.1-0.2-0.2c-1.2-1.2-2.7-2.2-4.4-2.9c-1.1-0.5-2.3-0.8-3.5-0.9v6.7v0.1C7.7,20,8,20.1,8.3,20.3
		c0.3,0.1,0.6,0.3,0.9,0.5c0.5,0.3,0.9,0.6,1.3,1c0.6,0.6,1.1,1.4,1.5,2.2c0.1,0.1,0.1,0.3,0.1,0.4c0.2,0.5,0.3,1.1,0.4,1.7
		c0,0.2,0,0.4,0,0.6v13.7h0h0h0.3h0.3h6.1V40V26.7C19.2,24.7,18.9,22.9,18.2,21.3z"/>
	<polygon class="st0" points="0,0 0,40.3 6.1,40.3 6.1,20.4 6.1,20 6.1,12.7 6.1,12.3 6.1,0 	"/>
</g>
</svg>
