<svg xmlns="http://www.w3.org/2000/svg" viewBox="0 0 148.08 142.39"><defs><style>.cls-1{isolation:isolate;}.cls-2{opacity:0.5;}.cls-2,.cls-8{mix-blend-mode:multiply;}.cls-3{fill:#d4eae9;}.cls-4{fill:#fff;}.cls-5{fill:#2b2b54;}.cls-6{fill:#88c4c0;}.cls-7{fill:#d2d2db;}.cls-8{opacity:0.26;}.cls-9{fill:#a6a6b8;}</style></defs><title>plan</title><g class="cls-1"><g id="Capa_1" data-name="Capa 1"><g class="cls-2"><circle class="cls-3" cx="69.19" cy="74.25" r="61.14"/></g><g class="cls-2"><circle class="cls-3" cx="78.02" cy="68.14" r="61.14"/></g><rect class="cls-4" x="20.5" y="31.68" width="118.36" height="76.82" rx="13.67" ry="13.67"/><path class="cls-5" d="M132.26,110.44H27.11a8.55,8.55,0,0,1-8.54-8.55V38.29a8.55,8.55,0,0,1,8.54-8.54H132.26a8.55,8.55,0,0,1,8.54,8.54v63.6A8.55,8.55,0,0,1,132.26,110.44ZM27.11,33.62a4.68,4.68,0,0,0-4.67,4.67v63.6a4.68,4.68,0,0,0,4.67,4.68H132.26a4.68,4.68,0,0,0,4.67-4.68V38.29a4.68,4.68,0,0,0-4.67-4.67Z"/><path class="cls-6" d="M31.45,33.25h96.11a9.38,9.38,0,0,1,9.38,9.38v3.17a0,0,0,0,1,0,0H22.07a0,0,0,0,1,0,0V42.63A9.38,9.38,0,0,1,31.45,33.25Z"/><circle class="cls-4" cx="122.1" cy="38.74" r="1.65"/><circle class="cls-4" cx="126.91" cy="38.74" r="1.65"/><circle class="cls-4" cx="131.72" cy="38.74" r="1.65"/><rect class="cls-7" x="25.21" y="48.93" width="34.3" height="27.44"/><rect class="cls-7" x="25.21" y="78.72" width="34.3" height="25.08"/><rect class="cls-3" x="62.53" y="48.93" width="34.3" height="54.87"/><rect class="cls-7" x="99.86" y="48.93" width="34.3" height="35.27"/><rect class="cls-7" x="99.86" y="86.56" width="34.3" height="17.24"/><g class="cls-8"><rect class="cls-5" x="0.45" y="35.29" width="76.26" height="42" rx="13.67" ry="13.67" transform="translate(-24.38 82.62) rotate(-78.26)"/></g><rect class="cls-4" x="-2.12" y="31.37" width="76.26" height="42" rx="13.67" ry="13.67" transform="translate(-22.59 76.98) rotate(-78.26)"/><path class="cls-5" d="M44.89,94.29l-33.72-7a4.89,4.89,0,0,1-3.79-5.78l14-67.27a4.89,4.89,0,0,1,5.77-3.79l33.73,7a4.89,4.89,0,0,1,3.78,5.77l-14,67.28A4.89,4.89,0,0,1,44.89,94.29ZM26.68,12.62a2.68,2.68,0,0,0-3.16,2.07L9.54,82a2.67,2.67,0,0,0,2.08,3.16l33.72,7a2.67,2.67,0,0,0,3.16-2.07l14-67.28a2.68,2.68,0,0,0-2.07-3.16Z"/><path class="cls-6" d="M28.54,16H56.75a5.79,5.79,0,0,1,5.79,5.79v3.05a0,0,0,0,1,0,0H22.75a0,0,0,0,1,0,0V21.82A5.79,5.79,0,0,1,28.54,16Z" transform="translate(5.05 -8.25) rotate(11.74)"/><rect class="cls-7" x="26.39" y="22.92" width="24.18" height="35.09" transform="translate(-8.97 69.92) rotate(-78.26)"/><rect class="cls-7" x="20.66" y="50.52" width="24.18" height="35.09" transform="translate(-40.55 86.29) rotate(-78.26)"/><path class="cls-5" d="M8.46,80.69H49.91a0,0,0,0,1,0,0v1.87a7.25,7.25,0,0,1-7.25,7.25H15.71a7.25,7.25,0,0,1-7.25-7.25V80.69a0,0,0,0,1,0,0Z" transform="translate(17.95 -4.15) rotate(11.74)"/><circle class="cls-4" cx="29.18" cy="85.24" r="2.07"/><polygon class="cls-7" points="26.38 46.03 38.67 34.57 45.59 50 26.38 46.03"/><circle class="cls-6" cx="105.16" cy="21.49" r="0.78"/><circle class="cls-6" cx="81.06" cy="113.79" r="2.55"/><circle class="cls-9" cx="82.62" cy="18.95" r="1.76"/><path class="cls-5" d="M112.61,120.63H47.15a1.94,1.94,0,0,1,0-3.87h65.46a1.94,1.94,0,0,1,0,3.87Z"/><circle class="cls-9" cx="29.32" cy="114.19" r="1.76"/><circle class="cls-6" cx="61.66" cy="11.3" r="2.74"/></g></g></svg>