<svg xmlns="http://www.w3.org/2000/svg" viewBox="0 0 148.08 142.39"><defs><style>.cls-1{isolation:isolate;}.cls-2{opacity:0.5;}.cls-2,.cls-8{mix-blend-mode:multiply;}.cls-3{fill:#d4eae9;}.cls-4{fill:#fff;}.cls-5{fill:#2b2b54;}.cls-6{fill:#88c4c0;}.cls-7{fill:#5a9e97;}.cls-8{opacity:0.22;}.cls-9{fill:#a6a6b8;}</style></defs><title>plan</title><g class="cls-1"><g id="Capa_1" data-name="Capa 1"><g class="cls-2"><circle class="cls-3" cx="64.27" cy="76.39" r="61.14"/></g><g class="cls-2"><circle class="cls-3" cx="73.1" cy="70.28" r="61.14"/></g><rect class="cls-4" x="13.35" y="34.39" width="118.36" height="76.82" rx="13.67" ry="13.67"/><path class="cls-5" d="M125.1,113.14H20a8.56,8.56,0,0,1-8.55-8.54V41A8.57,8.57,0,0,1,20,32.45H125.1A8.57,8.57,0,0,1,133.65,41v63.6A8.56,8.56,0,0,1,125.1,113.14ZM20,36.32A4.69,4.69,0,0,0,15.28,41v63.6A4.68,4.68,0,0,0,20,109.27H125.1a4.68,4.68,0,0,0,4.68-4.67V41a4.69,4.69,0,0,0-4.68-4.68Z"/><path class="cls-6" d="M24.57,36H120.4a9.37,9.37,0,0,1,9.37,9.37V48.5a0,0,0,0,1,0,0H15.19a0,0,0,0,1,0,0V45.33A9.37,9.37,0,0,1,24.57,36Z"/><circle class="cls-4" cx="114.95" cy="41.44" r="1.65"/><circle class="cls-4" cx="119.76" cy="41.44" r="1.65"/><circle class="cls-4" cx="124.57" cy="41.44" r="1.65"/><rect class="cls-7" x="18.05" y="51.63" width="34.3" height="54.87"/><rect class="cls-3" x="55.38" y="51.63" width="71.63" height="54.87"/><rect class="cls-4" x="58.64" y="55.78" width="64.27" height="35.27"/><rect class="cls-4" x="58.64" y="93.96" width="64.27" height="9.43"/><circle class="cls-4" cx="34.56" cy="65.31" r="12.44"/><path class="cls-4" d="M38.67,86.83H23.48a1.94,1.94,0,0,1,0-3.87H38.67a1.94,1.94,0,0,1,0,3.87Z"/><path class="cls-4" d="M48.14,94.09H23.48a1.94,1.94,0,0,1,0-3.87H48.14a1.94,1.94,0,1,1,0,3.87Z"/><path class="cls-4" d="M38.67,101.34H23.48a1.94,1.94,0,0,1,0-3.87H38.67a1.94,1.94,0,0,1,0,3.87Z"/><circle class="cls-5" cx="34.56" cy="61.85" r="4.19"/><path class="cls-5" d="M41.48,73a7,7,0,0,0-13.85,0Z"/><circle class="cls-6" cx="72.53" cy="116.5" r="2.55"/><circle class="cls-4" cx="108.95" cy="59.33" r="34.06"/><path class="cls-5" d="M109,95.32a36,36,0,1,1,36-36A36,36,0,0,1,109,95.32Zm0-68.12a32.13,32.13,0,1,0,32.13,32.13A32.16,32.16,0,0,0,109,27.2Z"/><path class="cls-5" d="M105.45,123.33H40a1.94,1.94,0,0,1,0-3.87h65.45a1.94,1.94,0,1,1,0,3.87Z"/><g class="cls-8"><path class="cls-5" d="M109.44,44.78,81.8,84.71a2.56,2.56,0,0,0-.45,1.44l0,16.83a2.55,2.55,0,0,0,3.46,2.39l15.68-6a2.67,2.67,0,0,0,1.27-1l27.61-39.88a2.56,2.56,0,0,0-.64-3.55L113,44.13A2.55,2.55,0,0,0,109.44,44.78Z"/></g><rect class="cls-6" x="90.27" y="42.06" width="23.23" height="51.86" transform="translate(56.8 -45.9) rotate(34.69)"/><rect class="cls-7" x="91.82" y="37.1" width="5.81" height="51.86" transform="translate(52.71 -42.71) rotate(34.69)"/><rect class="cls-7" x="98.99" y="42.06" width="5.81" height="51.86" transform="translate(56.8 -45.9) rotate(34.69)"/><rect class="cls-7" x="106.71" y="47.41" width="5.81" height="51.86" transform="translate(61.22 -49.35) rotate(34.69)"/><polygon class="cls-4" points="97.44 94.83 79.55 101.98 78.51 81.77 97.44 94.83"/><path class="cls-5" d="M80.26,104.1a4.5,4.5,0,0,1-4.49-4.49l0-16.84a4.39,4.39,0,0,1,.8-2.53l27.64-39.93h0a4.4,4.4,0,0,1,2.88-1.86,4.46,4.46,0,0,1,3.35.72L126.18,50a4.49,4.49,0,0,1,1.14,6.24L99.71,96.15a4.66,4.66,0,0,1-2.18,1.71l-15.68,6A4.42,4.42,0,0,1,80.26,104.1Zm27.68-61.86h-.11a.63.63,0,0,0-.39.26h0L79.8,82.44a.61.61,0,0,0-.11.35l0,16.83a.62.62,0,0,0,.83.57l15.69-6a.82.82,0,0,0,.37-.29l27.61-39.88a.62.62,0,0,0,.09-.46.58.58,0,0,0-.25-.4L108.29,42.35A.67.67,0,0,0,107.94,42.24Zm-2.09-.83Z"/><path class="cls-4" d="M84.61,82.59a1.93,1.93,0,0,1-1.59-3l18.71-27a1.93,1.93,0,1,1,3.18,2.2l-18.71,27A1.93,1.93,0,0,1,84.61,82.59Z"/><circle class="cls-4" cx="107.18" cy="48.05" r="1.93"/><polygon class="cls-6" points="38.33 23.99 32.32 22.98 28.08 27.35 27.18 21.33 21.71 18.65 27.17 15.93 28.03 9.9 32.29 14.25 38.29 13.2 35.47 18.6 38.33 23.99"/><polygon class="cls-6" points="65.24 25.87 62.81 23.4 59.41 24.01 61 20.94 59.38 17.89 62.79 18.45 65.19 15.96 65.7 19.38 68.81 20.9 65.72 22.44 65.24 25.87"/><polygon class="cls-6" points="101.14 21.71 98.36 18.44 94.09 18.87 96.34 15.21 94.61 11.28 98.78 12.3 101.99 9.43 102.31 13.72 106.03 15.88 102.05 17.51 101.14 21.71"/><circle class="cls-9" cx="68.69" cy="6.15" r="1.29"/><polygon class="cls-6" points="28.08 123.66 24.81 123.47 22.8 126.07 21.96 122.89 18.88 121.78 21.64 120.01 21.74 116.73 24.28 118.81 27.43 117.89 26.24 120.95 28.08 123.66"/><polygon class="cls-6" points="117.75 123.85 115.32 121.39 111.92 121.99 113.51 118.92 111.88 115.87 115.29 116.44 117.69 113.95 118.21 117.37 121.32 118.88 118.22 120.43 117.75 123.85"/></g></g></svg>