<svg xmlns="http://www.w3.org/2000/svg" viewBox="0 0 323.31 382"><defs><style>.cls-1{isolation:isolate;}.cls-2{fill:#d4eae9;opacity:0.5;mix-blend-mode:multiply;}.cls-3{fill:#88c4c0;}.cls-3,.cls-5{stroke:#2b2b54;}.cls-3,.cls-4,.cls-5,.cls-7{stroke-miterlimit:10;}.cls-3,.cls-4,.cls-5{stroke-width:8px;}.cls-4,.cls-7{fill:none;}.cls-4{stroke:#fff;}.cls-4,.cls-5{stroke-linecap:round;}.cls-5,.cls-6{fill:#fff;}.cls-7{stroke:#a6a6b8;}</style></defs><title>servicio</title><g class="cls-1"><g id="Capa_1" data-name="Capa 1"><circle class="cls-2" cx="150.47" cy="214.95" r="150.75"/><circle class="cls-2" cx="172.25" cy="199.88" r="150.75"/><rect class="cls-3" x="79.07" y="61.95" width="162.17" height="122.99" rx="13.67" ry="13.67"/><rect class="cls-3" x="58.8" y="207.41" width="202.71" height="122.99" rx="13.67" ry="13.67"/><line class="cls-4" x1="83.86" y1="314.72" x2="238.86" y2="314.72"/><path class="cls-5" d="M214.83,172.84H105.48a7.34,7.34,0,0,1-7.33-7.34V44.25a7.34,7.34,0,0,1,7.33-7.34H214.83a7.34,7.34,0,0,1,7.34,7.34V165.5A7.34,7.34,0,0,1,214.83,172.84Zm-93-103.73H198.5M121.81,101.3H198.5m-76.69,32.19H198.5"/><rect class="cls-3" x="14.24" y="163.3" width="291.84" height="122.99" rx="13.67" ry="13.67"/><circle class="cls-6" cx="257.59" cy="183.43" r="4.08"/><circle class="cls-6" cx="269.45" cy="183.43" r="4.08"/><circle class="cls-6" cx="281.32" cy="183.43" r="4.08"/><path class="cls-4" d="M30.44,237.8V183.94a4,4,0,0,1,4-3.95H79.07"/><line class="cls-4" x1="29" y1="270.6" x2="291.32" y2="270.6"/><circle class="cls-7" cx="271.8" cy="94.76" r="5.95"/><circle class="cls-7" cx="55.33" cy="135.82" r="7.67"/></g></g></svg>