<svg xmlns="http://www.w3.org/2000/svg" viewBox="0 0 323.31 382"><defs><style>.cls-1{isolation:isolate;}.cls-2{fill:#d4eae9;opacity:0.5;mix-blend-mode:multiply;}.cls-3{fill:#fff;}.cls-4,.cls-5{fill:none;stroke:#2b2b54;stroke-miterlimit:10;stroke-width:8px;}.cls-5{stroke-linecap:round;}.cls-6{fill:#2b2b54;}.cls-7{fill:#88c4c0;}.cls-8{fill:#a6a6b8;}</style></defs><title>servicio</title><g class="cls-1"><g id="Capa_1" data-name="Capa 1"><circle class="cls-2" cx="150.77" cy="212.95" r="150.77"/><circle class="cls-2" cx="172.54" cy="197.88" r="150.77"/><circle class="cls-3" cx="172.39" cy="158.59" r="101.36"/><circle class="cls-4" cx="166.43" cy="151.44" r="108.51"/><path class="cls-4" d="M142.58,260l-14-62.26A10.09,10.09,0,0,1,133,187l54.22-34.5a10.07,10.07,0,0,1,15.37,9.94l-13.79,95.2"/><path class="cls-5" d="M209.35,265.91v69.76A42.33,42.33,0,0,1,167,378h0a42.33,42.33,0,0,1-42.33-42.33V265.91"/><line class="cls-5" x1="137.81" y1="294.53" x2="197.43" y2="279.03"/><line class="cls-5" x1="137.81" y1="315.99" x2="197.43" y2="300.49"/><line class="cls-5" x1="137.81" y1="337.46" x2="197.43" y2="321.96"/><path class="cls-5" d="M84.69,119.91a109,109,0,0,1,46.49-47.72"/><circle class="cls-4" cx="166.43" cy="151.44" r="108.51"/><path class="cls-6" d="M166.43,26.23a4.76,4.76,0,0,1-4.77-4.77V4.77a4.77,4.77,0,1,1,9.54,0V21.46A4.77,4.77,0,0,1,166.43,26.23Z"/><path class="cls-6" d="M103.82,43a4.77,4.77,0,0,1-6.51-1.75L89,26.8A4.77,4.77,0,0,1,97.22,22l8.35,14.46A4.77,4.77,0,0,1,103.82,43Z"/><path class="cls-6" d="M58,88.84a4.77,4.77,0,0,1-6.52,1.74L37,82.23A4.77,4.77,0,0,1,41.79,74l14.46,8.35A4.78,4.78,0,0,1,58,88.84Z"/><path class="cls-6" d="M41.22,151.44a4.77,4.77,0,0,1-4.77,4.77H19.76a4.77,4.77,0,1,1,0-9.54H36.45A4.76,4.76,0,0,1,41.22,151.44Z"/><path class="cls-6" d="M58,214a4.78,4.78,0,0,1-1.75,6.52L41.79,228.9A4.77,4.77,0,0,1,37,220.64l14.46-8.34A4.77,4.77,0,0,1,58,214Z"/><path class="cls-6" d="M274.86,214a4.76,4.76,0,0,1,6.51-1.74l14.46,8.34a4.77,4.77,0,1,1-4.77,8.26l-14.46-8.34A4.77,4.77,0,0,1,274.86,214Z"/><path class="cls-6" d="M291.63,151.44a4.77,4.77,0,0,1,4.77-4.77h16.7a4.77,4.77,0,0,1,0,9.54H296.4A4.78,4.78,0,0,1,291.63,151.44Z"/><path class="cls-6" d="M274.86,88.84a4.77,4.77,0,0,1,1.74-6.52L291.06,74a4.77,4.77,0,1,1,4.77,8.26l-14.46,8.35A4.76,4.76,0,0,1,274.86,88.84Z"/><path class="cls-6" d="M229,43a4.78,4.78,0,0,1-1.75-6.52L235.63,22a4.77,4.77,0,0,1,8.26,4.77l-8.35,14.46A4.77,4.77,0,0,1,229,43Z"/><circle class="cls-7" cx="71.03" cy="294.53" r="10.73"/><circle class="cls-7" cx="265.99" cy="308.24" r="7.75"/><circle class="cls-8" cx="244.53" cy="256.97" r="5.37"/><circle class="cls-7" cx="81.76" cy="262.33" r="2.38"/></g></g></svg>