<svg id="Capa_1" data-name="Capa 1" xmlns="http://www.w3.org/2000/svg" viewBox="0 0 245.35 321.68"><defs><style>.cls-1,.cls-2{fill:#2b2b54;}.cls-1{opacity:0.15;}.cls-3{fill:#5a9e97;}</style></defs><title>skill</title><circle class="cls-1" cx="122.68" cy="132.84" r="104.38"/><path class="cls-2" d="M33.31,287.09v26H29.82v-26Z"/><path class="cls-2" d="M66.68,286.26v26.86H63.22V296.27l-9.57,13.57h-.07l-9.4-13.1v16.38H40.8V286.26h0L53.65,304.4l13-18.14Z"/><path class="cls-2" d="M87.79,289.21a7.53,7.53,0,0,1,2.4,5.94,9.82,9.82,0,0,1-.88,4.11,7,7,0,0,1-2.85,3.09,9.45,9.45,0,0,1-4.95,1.19H77.66v9.58H74.17v-26h7A9.68,9.68,0,0,1,87.79,289.21Zm-3.24,10.15a4.58,4.58,0,0,0,1.68-1.92,5.56,5.56,0,0,0,.5-2.22,5.09,5.09,0,0,0-1.22-3.33,4.72,4.72,0,0,0-3.82-1.45h-4v9.72h3.85A5.3,5.3,0,0,0,84.55,299.36Z"/><path class="cls-2" d="M109.92,313.12l-6.12-9.62a6.37,6.37,0,0,1-.87,0H99.08v9.58H95.59v-26h7a11.57,11.57,0,0,1,4.75.93,7.51,7.51,0,0,1,3.27,2.76,7.75,7.75,0,0,1,1.19,4.37,9.32,9.32,0,0,1-1.06,4.43,6.94,6.94,0,0,1-3.26,3.06L114,313.12Zm-3-14.44a5.08,5.08,0,0,0,1.24-3.38,5.26,5.26,0,0,0-.52-2.27,4.47,4.47,0,0,0-1.66-1.86,5.15,5.15,0,0,0-2.86-.73h-4v9.72h3.78A5,5,0,0,0,106.91,298.68Z"/><path class="cls-2" d="M136.27,287.09v3.35H122.84v7.92h12v3.34h-12v8h13.93v3.39H119.35v-26Z"/><path class="cls-2" d="M153.33,290.51a10.65,10.65,0,0,0-3-.47A5.41,5.41,0,0,0,147,291a3.24,3.24,0,0,0,.21,5.26,18.94,18.94,0,0,0,4.16,2,18.75,18.75,0,0,1,3.4,1.57,6.9,6.9,0,0,1,2.31,2.34A7.18,7.18,0,0,1,158,306a7,7,0,0,1-1,3.78,7.25,7.25,0,0,1-3,2.66,9.87,9.87,0,0,1-4.52,1,13.94,13.94,0,0,1-4.64-.77,16,16,0,0,1-3.93-2l1.55-2.77a12.79,12.79,0,0,0,3.21,1.71,10.12,10.12,0,0,0,3.49.7,6.26,6.26,0,0,0,3.65-1.08,3.63,3.63,0,0,0,1.57-3.21,3.48,3.48,0,0,0-1.32-2.86,14.12,14.12,0,0,0-3.69-2,29.27,29.27,0,0,1-3.65-1.62,7.61,7.61,0,0,1-2.5-2.17,5.62,5.62,0,0,1-1.05-3.48,6.29,6.29,0,0,1,2.15-4.95,8.55,8.55,0,0,1,5.56-2,15.31,15.31,0,0,1,7.81,2.09l-1.33,2.7A15.75,15.75,0,0,0,153.33,290.51Z"/><path class="cls-2" d="M167.3,287.09v26h-3.49v-26Z"/><path class="cls-2" d="M175,293.5a13.64,13.64,0,0,1,4.84-4.88,13,13,0,0,1,13.26,0A13.75,13.75,0,0,1,198,293.5a12.74,12.74,0,0,1,1.82,6.62,12.9,12.9,0,0,1-1.8,6.66,13.32,13.32,0,0,1-4.88,4.84,13.38,13.38,0,0,1-13.3,0,13.14,13.14,0,0,1-4.84-4.81,13,13,0,0,1-1.78-6.71A12.81,12.81,0,0,1,175,293.5Zm3.09,11.59a9.81,9.81,0,0,0,3.55,3.6,9.56,9.56,0,0,0,13.28-3.58,10.1,10.1,0,0,0,1.28-5,10,10,0,0,0-1.3-5,9.69,9.69,0,0,0-3.52-3.64,9.63,9.63,0,0,0-9.8,0,9.84,9.84,0,0,0-3.51,3.65,10.2,10.2,0,0,0-1.27,5A9.81,9.81,0,0,0,178.06,305.09Zm9.43-19.41h-2.16l3-4.82h3.75Z"/><path class="cls-2" d="M228.32,287.09V314h-.11l-19.12-19.4.08,18.54h-3.53V286.3h.18l19.08,19.62-.07-18.83Z"/><path class="cls-2" d="M83.83,141.25a12.86,12.86,0,0,1-2,17.85q-4.7,3.65-12.81,3.64T56.25,159.1a12.71,12.71,0,0,1-1.89-17.82A14.41,14.41,0,0,1,62,136.7a13.28,13.28,0,0,1-6.9-4.41A11.44,11.44,0,0,1,52.68,125a12,12,0,0,1,2-6.93,12.85,12.85,0,0,1,5.77-4.62,21.63,21.63,0,0,1,8.58-1.61,21.54,21.54,0,0,1,8.57,1.61,12.88,12.88,0,0,1,5.78,4.62,12.12,12.12,0,0,1,2,6.93A11.45,11.45,0,0,1,83,132.29a13.3,13.3,0,0,1-6.89,4.41A14.21,14.21,0,0,1,83.83,141.25Zm-5,15.15A8.78,8.78,0,0,0,82.15,149a8.41,8.41,0,0,0-3.61-7.14,18.66,18.66,0,0,0-9.48-3.22,18.73,18.73,0,0,0-9.49,3.22A8.42,8.42,0,0,0,56,149a8.78,8.78,0,0,0,3.36,7.45Q62.69,159,69.06,159T78.79,156.4ZM60.31,132.15a16,16,0,0,0,8.75,3.22,16.06,16.06,0,0,0,8.75-3.22,9.25,9.25,0,0,0,.07-14q-3.15-2.55-8.82-2.55t-8.82,2.55a9.25,9.25,0,0,0,.07,14Z"/><path class="cls-2" d="M98.28,156.33q-4.36-6.47-4.37-19t4.34-19q4.34-6.46,12.81-6.47t12.81,6.44q4.34,6.43,4.34,19t-4.38,19q-4.36,6.51-12.77,6.51T98.28,156.33Zm22.33-2.66q3.12-5.28,3.12-16.41t-3.08-16.35q-3.09-5.2-9.59-5.21A10.36,10.36,0,0,0,101.5,121q-3.1,5.25-3.11,16.31t3.11,16.38a11.26,11.26,0,0,0,19.11,0Z"/><path class="cls-2" d="M139.41,138.52q-3.09-3.86-3.08-11.41t3.08-11.38a10.44,10.44,0,0,1,8.61-3.81,10.63,10.63,0,0,1,8.71,3.81q3.12,3.83,3.12,11.38t-3.15,11.41a10.63,10.63,0,0,1-8.68,3.85A10.41,10.41,0,0,1,139.41,138.52Zm14.38-2.38c1.24-1.91,1.86-4.93,1.86-9s-.62-7.06-1.86-9a7.09,7.09,0,0,0-11.44,0q-1.89,2.91-1.89,9c0,4.1.61,7.12,1.85,9a7.17,7.17,0,0,0,11.48,0Zm-1.22,26.11h-4.48l28.77-49.84h4.48Zm20.12-3.36q-3.12-3.85-3.11-11.41t3.08-11.41a11.86,11.86,0,0,1,17.36,0q3.07,3.78,3.08,11.41T190,158.89a11.63,11.63,0,0,1-17.29,0ZM187,156.51c1.24-1.91,1.86-4.93,1.86-9s-.62-7-1.86-9a7.11,7.11,0,0,0-11.41,0c-1.24,1.91-1.85,4.9-1.85,9s.61,7.12,1.85,9a7.11,7.11,0,0,0,11.41,0Z"/><path class="cls-3" d="M218.06,132.84a95.22,95.22,0,0,1-4.67,29.48l17.12,5.56a113.37,113.37,0,0,0,2.6-60.73,9,9,0,0,0-11.53-6.44h0a9,9,0,0,0-6,10.56A95.22,95.22,0,0,1,218.06,132.84Z"/><path class="cls-3" d="M122.68,228.22h0v18h0a112.78,112.78,0,0,0,66.61-21.69L178.71,210A94.84,94.84,0,0,1,122.68,228.22Z"/><path class="cls-3" d="M32,162.32l-17.12,5.56a113.83,113.83,0,0,0,41.21,56.65L66.64,210A95.74,95.74,0,0,1,32,162.32Z"/><path class="cls-3" d="M66.64,210,56.06,224.53a112.81,112.81,0,0,0,66.62,21.69v-18A94.85,94.85,0,0,1,66.64,210Z"/><path class="cls-3" d="M230.51,167.88l-17.12-5.56A95.76,95.76,0,0,1,178.71,210l10.58,14.56A113.91,113.91,0,0,0,230.51,167.88Z"/><path class="cls-3" d="M66.64,55.71,56.06,41.16A113.79,113.79,0,0,0,14.85,97.81L32,103.37A95.77,95.77,0,0,1,66.64,55.71Z"/><path class="cls-3" d="M122.68,28.85h0a9,9,0,0,0-9.73-9A112.69,112.69,0,0,0,56.06,41.16L66.64,55.71a94.85,94.85,0,0,1,47.88-17.9A9,9,0,0,0,122.68,28.85Z"/><path class="cls-3" d="M27.3,132.84A94.81,94.81,0,0,1,32,103.37L14.85,97.81a113.36,113.36,0,0,0,0,70.07L32,162.32A94.92,94.92,0,0,1,27.3,132.84Z"/></svg>