<svg id="Capa_1" data-name="Capa 1" xmlns="http://www.w3.org/2000/svg" viewBox="0 0 245.35 321.68"><defs><style>.cls-1,.cls-2{fill:#2b2b54;}.cls-1{opacity:0.15;}.cls-3{fill:#5a9e97;}</style></defs><title>skill</title><circle class="cls-1" cx="122.68" cy="132.84" r="104.38"/><path class="cls-2" d="M44.94,302.08a5.77,5.77,0,0,1,1.29,3.73,6.79,6.79,0,0,1-1.2,4.12,7.06,7.06,0,0,1-3.17,2.41,11.54,11.54,0,0,1-4.3.78H29.82v-26h6.73a10.13,10.13,0,0,1,6.19,1.64,5.75,5.75,0,0,1,2.2,4.91,6.84,6.84,0,0,1-.92,3.58,6.33,6.33,0,0,1-2.61,2.4A8.2,8.2,0,0,1,44.94,302.08Zm-11.63-3.62h4a3.85,3.85,0,0,0,3-1.15,4.29,4.29,0,0,0,1-2.95,3.53,3.53,0,0,0-1.23-2.95,5.34,5.34,0,0,0-3.42-1H33.31Zm7.85,10.39a3.44,3.44,0,0,0,1.47-3,3.28,3.28,0,0,0-1.6-3,7.32,7.32,0,0,0-3.87-1H33.31v8h4.1A6.48,6.48,0,0,0,41.16,308.85Z"/><path class="cls-2" d="M66.43,313.12l-6.12-9.62a6.28,6.28,0,0,1-.87,0H55.59v9.58H52.1v-26h6.95a11.57,11.57,0,0,1,4.75.93,7.59,7.59,0,0,1,3.28,2.76,7.82,7.82,0,0,1,1.18,4.37,9.32,9.32,0,0,1-1.06,4.43,6.94,6.94,0,0,1-3.26,3.06l6.56,10.48Zm-3-14.44a5.08,5.08,0,0,0,1.24-3.38,5.26,5.26,0,0,0-.52-2.27,4.52,4.52,0,0,0-1.65-1.86,5.18,5.18,0,0,0-2.87-.73h-4v9.72h3.78A5,5,0,0,0,63.42,298.68Z"/><path class="cls-2" d="M89.5,306.28h-10l-2.78,6.84H73.27L84.64,286h.22l11.38,27.11h-4Zm-1.18-3-3.71-9.5-3.86,9.5Z"/><path class="cls-2" d="M123.77,287.09V314h-.1l-19.12-19.4.07,18.54h-3.53V286.3h.18l19.08,19.62-.07-18.83Z"/><path class="cls-2" d="M131.26,287.09h7.13a15.4,15.4,0,0,1,8.05,1.92,11.7,11.7,0,0,1,4.64,5,14.72,14.72,0,0,1,1.46,6.43,12.58,12.58,0,0,1-1.77,6.68,12,12,0,0,1-4.71,4.46,13.51,13.51,0,0,1-6.41,1.57h-8.39ZM139,309.73a11.47,11.47,0,0,0,5.15-1.13,8.42,8.42,0,0,0,3.54-3.3,11,11,0,0,0,0-10.4,8.81,8.81,0,0,0-3.55-3.33,10.25,10.25,0,0,0-4.77-1.13h-4.54v19.29Z"/><path class="cls-2" d="M161.9,287.09v26h-3.49v-26Z"/><path class="cls-2" d="M192.07,287.09V314H192l-19.12-19.4.07,18.54h-3.52V286.3h.18l19.08,19.62-.08-18.83Z"/><path class="cls-2" d="M216.24,312.61a15.78,15.78,0,0,1-4.7.79,14.76,14.76,0,0,1-7.16-1.67,11.86,11.86,0,0,1-4.77-4.59,12.88,12.88,0,0,1-1.68-6.55,14.44,14.44,0,0,1,1.8-7.36,12.24,12.24,0,0,1,4.86-4.77,13.81,13.81,0,0,1,6.7-1.66,15.87,15.87,0,0,1,4.14.52,15,15,0,0,1,3.49,1.39l-1.15,3.2a13,13,0,0,0-2.9-1.13,11.6,11.6,0,0,0-3.15-.49,11.22,11.22,0,0,0-5.34,1.23,8.57,8.57,0,0,0-3.59,3.49,10.7,10.7,0,0,0-1.26,5.29,9.85,9.85,0,0,0,1.26,5,8.64,8.64,0,0,0,3.57,3.41,11.19,11.19,0,0,0,5.25,1.2,13.07,13.07,0,0,0,2.67-.27,7.46,7.46,0,0,0,2.16-.77v-5.15h-5.19v-3.35H220v10.51A12,12,0,0,1,216.24,312.61Z"/><path class="cls-2" d="M79.14,129.27a13.42,13.42,0,0,1,5.39,5.53A17.24,17.24,0,0,1,86.42,143a16.51,16.51,0,0,1-2,8.19,14,14,0,0,1-5.7,5.56,17.94,17.94,0,0,1-8.61,2A23.82,23.82,0,0,1,61.32,157a21.72,21.72,0,0,1-7.38-4.65l1.82-3.43q7,6,14.42,6a11.53,11.53,0,0,0,8.64-3.26,13.37,13.37,0,0,0,0-17.29,10.88,10.88,0,0,0-8.26-3.32,14.29,14.29,0,0,0-6.86,1.57,14.14,14.14,0,0,0-5.11,4.87H55.27V108.41H84.53v3.71H59.61V132a13.78,13.78,0,0,1,4.93-3.47,16.28,16.28,0,0,1,6.34-1.22A16.63,16.63,0,0,1,79.14,129.27Z"/><path class="cls-2" d="M98.28,152.33q-4.36-6.47-4.37-19t4.34-19q4.34-6.46,12.81-6.47t12.81,6.44q4.34,6.43,4.34,19t-4.38,19q-4.36,6.51-12.77,6.51T98.28,152.33Zm22.33-2.66q3.12-5.28,3.12-16.41t-3.08-16.35q-3.09-5.2-9.59-5.21A10.36,10.36,0,0,0,101.5,117q-3.12,5.25-3.11,16.31t3.11,16.38a11.26,11.26,0,0,0,19.11,0Z"/><path class="cls-2" d="M139.41,134.52q-3.09-3.86-3.08-11.41t3.08-11.38a10.44,10.44,0,0,1,8.61-3.81,10.63,10.63,0,0,1,8.71,3.81q3.12,3.83,3.12,11.38t-3.15,11.41a10.63,10.63,0,0,1-8.68,3.85A10.41,10.41,0,0,1,139.41,134.52Zm14.38-2.38c1.24-1.91,1.86-4.93,1.86-9s-.62-7.06-1.86-9a7.09,7.09,0,0,0-11.44,0q-1.89,2.91-1.89,9c0,4.1.61,7.12,1.85,9a7.17,7.17,0,0,0,11.48,0Zm-1.22,26.11h-4.48l28.77-49.84h4.48Zm20.12-3.36q-3.12-3.85-3.11-11.41t3.08-11.41a11.86,11.86,0,0,1,17.36,0q3.07,3.78,3.08,11.41T190,154.89a11.63,11.63,0,0,1-17.29,0ZM187,152.51c1.24-1.91,1.86-4.93,1.86-9s-.62-7-1.86-9a7.11,7.11,0,0,0-11.41,0c-1.24,1.91-1.85,4.9-1.85,9s.61,7.12,1.85,9a7.11,7.11,0,0,0,11.41,0Z"/><path class="cls-3" d="M31.45,162.32l-17.12,5.56a113.85,113.85,0,0,0,41.22,56.65L66.12,210A95.8,95.8,0,0,1,31.45,162.32Z"/><path class="cls-3" d="M66.12,210,55.55,224.53a112.78,112.78,0,0,0,56.88,21.28,9,9,0,0,0,9.73-9h0a9,9,0,0,0-8.15-9A94.79,94.79,0,0,1,66.12,210Z"/><path class="cls-3" d="M66.12,55.71,55.55,41.16A113.81,113.81,0,0,0,14.33,97.81l17.12,5.56A95.83,95.83,0,0,1,66.12,55.71Z"/><path class="cls-3" d="M122.16,28.85h0a9,9,0,0,0-9.73-9A112.69,112.69,0,0,0,55.55,41.16L66.12,55.71A94.88,94.88,0,0,1,114,37.81,9,9,0,0,0,122.16,28.85Z"/><path class="cls-3" d="M26.78,132.84a95.1,95.1,0,0,1,4.67-29.47L14.33,97.81a113.36,113.36,0,0,0,0,70.07l17.12-5.56A95.22,95.22,0,0,1,26.78,132.84Z"/></svg>