<svg id="Capa_1" data-name="Capa 1" xmlns="http://www.w3.org/2000/svg" viewBox="0 0 221.37 3499.51"><defs><style>.cls-1{fill:none;stroke:#88c4c0;stroke-miterlimit:10;stroke-width:0.25px;}.cls-2{fill:#88c4c0;}</style></defs><title>decoration-mark</title><path class="cls-1" d="M74.1,3291.51A101.8,101.8,0,0,1,92.58,3306a105.78,105.78,0,0,1,21.79,31.89c.82,1.85,1.46,3.77,2.16,5.67a95,95,0,0,1,5.5,24.16c.29,3.12.47,6.28.47,9.48v122.22h98.75V3378q0-42.48-15.81-78.81a208.83,208.83,0,0,0-28-46.68c-1.95-2.46-4-4.83-6-7.18s-4.11-4.66-6.26-6.91c-.94-1-1.77-2-2.73-3a199.88,199.88,0,0,0-63.74-42.61,193.39,193.39,0,0,0-51.39-13.46v100.34a93.55,93.55,0,0,1,13,4.53A109.78,109.78,0,0,1,74.1,3291.51Z"/><path class="cls-2" d="M114.15,56.62c.52.51,1,1.08,1.48,1.62s.82.94,1.25,1.38c2.35,2.46,4.58,5,6.25,6.9,2,2.25,4.06,4.68,6,7.16a208.94,208.94,0,0,1,27.94,46.6c10.47,24.19,15.78,50.65,15.78,78.66V319.81h.75V198.94c0-28.11-5.33-54.67-15.84-78.95a209.69,209.69,0,0,0-28-46.78c-2-2.48-4.07-4.92-6.05-7.19-1.67-1.92-3.9-4.45-6.27-6.92-.42-.43-.82-.89-1.23-1.35s-1-1.13-1.51-1.66A200.07,200.07,0,0,0,50.82,13.4,193.61,193.61,0,0,0,0,0V.75A193.09,193.09,0,0,1,50.53,14.09,199.3,199.3,0,0,1,114.15,56.62Z"/><path class="cls-2" d="M68.18,164.65a95,95,0,0,1,5.48,24.07c.31,3.42.47,6.51.47,9.44V319.81h.75V198.16c0-2.95-.16-6.06-.47-9.51a96,96,0,0,0-5.53-24.26L68.4,163c-.52-1.43-1.05-2.92-1.69-4.34a106.18,106.18,0,0,0-21.86-32,103.1,103.1,0,0,0-18.56-14.52,108.1,108.1,0,0,0-13.87-7.37A94.44,94.44,0,0,0,0,100.43v.79a94.26,94.26,0,0,1,12.12,4.27,108.74,108.74,0,0,1,13.78,7.33,102.35,102.35,0,0,1,18.42,14.41A105.61,105.61,0,0,1,66,159c.62,1.4,1.15,2.87,1.66,4.3Z"/></svg>