<svg xmlns="http://www.w3.org/2000/svg" viewBox="0 0 50 50"><defs><style>.cls-1{isolation:isolate;}.cls-2{opacity:0.5;}.cls-2,.cls-8{mix-blend-mode:multiply;}.cls-3{fill:#d4eae9;}.cls-4{fill:#fff;}.cls-5{fill:#2b2b54;}.cls-6{fill:#88c4c0;}.cls-7{fill:#5a9e97;}.cls-8{opacity:0.22;}.cls-9{fill:#a6a6b8;}</style></defs><title>icon</title><g class="cls-1"><g id="Capa_1" data-name="Capa 1"><g class="cls-2"><circle class="cls-3" cx="21.57" cy="26.82" r="21.46"/></g><g class="cls-2"><circle class="cls-3" cx="24.67" cy="24.68" r="21.46"/></g><rect class="cls-4" x="3.7" y="12.08" width="41.54" height="26.96" rx="11.86" ry="11.86"/><path class="cls-5" d="M42.92,39.72H6a3,3,0,0,1-3-3V14.4a3,3,0,0,1,3-3h36.9a3,3,0,0,1,3,3V36.72A3,3,0,0,1,42.92,39.72ZM6,12.76A1.64,1.64,0,0,0,4.38,14.4V36.72A1.63,1.63,0,0,0,6,38.36h36.9a1.63,1.63,0,0,0,1.64-1.64V14.4a1.64,1.64,0,0,0-1.64-1.64Z"/><path class="cls-6" d="M8.22,12.63H40.69a3.87,3.87,0,0,1,3.87,3.87V17a0,0,0,0,1,0,0H4.35a0,0,0,0,1,0,0V16.5A3.87,3.87,0,0,1,8.22,12.63Z"/><circle class="cls-4" cx="39.36" cy="14.56" r="0.58"/><circle class="cls-4" cx="41.05" cy="14.56" r="0.58"/><circle class="cls-4" cx="42.74" cy="14.56" r="0.58"/><rect class="cls-7" x="5.35" y="18.14" width="12.04" height="19.26"/><rect class="cls-3" x="18.45" y="18.14" width="25.14" height="19.26"/><rect class="cls-4" x="19.6" y="19.59" width="22.56" height="12.38"/><rect class="cls-4" x="19.6" y="32.99" width="22.56" height="3.31"/><circle class="cls-4" cx="11.14" cy="22.93" r="4.37"/><path class="cls-4" d="M12.59,30.49H7.26a.68.68,0,0,1,0-1.36h5.33a.68.68,0,0,1,0,1.36Z"/><path class="cls-4" d="M15.91,33H7.26a.68.68,0,1,1,0-1.35h8.65a.68.68,0,1,1,0,1.35Z"/><path class="cls-4" d="M12.59,35.58H7.26a.68.68,0,1,1,0-1.36h5.33a.68.68,0,0,1,0,1.36Z"/><circle class="cls-5" cx="11.14" cy="21.72" r="1.47"/><path class="cls-5" d="M13.57,25.62a2.47,2.47,0,0,0-4.86,0Z"/><circle class="cls-6" cx="24.47" cy="40.9" r="0.89"/><circle class="cls-4" cx="37.25" cy="20.83" r="11.95"/><path class="cls-5" d="M37.25,33.47A12.64,12.64,0,1,1,49.89,20.83,12.65,12.65,0,0,1,37.25,33.47Zm0-23.91A11.28,11.28,0,1,0,48.53,20.83,11.29,11.29,0,0,0,37.25,9.56Z"/><path class="cls-5" d="M36,43.3h-23a.68.68,0,0,1,0-1.36H36a.68.68,0,0,1,0,1.36Z"/><g class="cls-8"><path class="cls-5" d="M37.43,15.73l-9.7,14a.86.86,0,0,0-.16.51l0,5.91a.9.9,0,0,0,1.21.84l5.51-2.09a1,1,0,0,0,.44-.35l9.69-14a.91.91,0,0,0-.22-1.25L38.67,15.5A.89.89,0,0,0,37.43,15.73Z"/></g><rect class="cls-6" x="30.7" y="14.77" width="8.15" height="18.2" transform="translate(19.77 -15.55) rotate(34.69)"/><rect class="cls-7" x="31.24" y="13.03" width="2.04" height="18.2" transform="translate(18.33 -14.43) rotate(34.69)"/><rect class="cls-7" x="33.76" y="14.77" width="2.04" height="18.2" transform="translate(19.77 -15.55) rotate(34.69)"/><rect class="cls-7" x="36.47" y="16.65" width="2.04" height="18.2" transform="translate(21.32 -16.76) rotate(34.69)"/><polygon class="cls-4" points="33.21 33.3 26.94 35.8 26.57 28.71 33.21 33.3"/><path class="cls-5" d="M27.18,36.55a1.59,1.59,0,0,1-.89-.28,1.56,1.56,0,0,1-.68-1.3l0-5.91a1.52,1.52,0,0,1,.28-.89l9.7-14h0a1.48,1.48,0,0,1,1-.65,1.52,1.52,0,0,1,1.17.25l5.51,3.81a1.58,1.58,0,0,1,.4,2.19L34,33.76a1.66,1.66,0,0,1-.76.6l-5.51,2.09A1.54,1.54,0,0,1,27.18,36.55ZM36.9,14.84h0a.29.29,0,0,0-.14.09h0L27,29a.21.21,0,0,0,0,.12V35a.19.19,0,0,0,.09.17.21.21,0,0,0,.2,0l5.5-2.09a.27.27,0,0,0,.13-.1l9.69-14a.23.23,0,0,0,0-.16.22.22,0,0,0-.09-.14L37,14.88A.21.21,0,0,0,36.9,14.84Zm-.74-.29h0Z"/><path class="cls-4" d="M28.71,29a.71.71,0,0,1-.39-.12.69.69,0,0,1-.17-.95l6.57-9.49a.68.68,0,0,1,1.12.78l-6.57,9.49A.67.67,0,0,1,28.71,29Z"/><circle class="cls-4" cx="36.63" cy="16.88" r="0.68"/><polygon class="cls-6" points="12.46 8.43 10.36 8.08 8.87 9.61 8.56 7.5 6.63 6.56 8.55 5.61 8.85 3.49 10.35 5.01 12.45 4.65 11.46 6.54 12.46 8.43"/><polygon class="cls-6" points="21.91 9.09 21.06 8.23 19.86 8.44 20.42 7.36 19.85 6.29 21.05 6.49 21.89 5.62 22.07 6.82 23.16 7.35 22.08 7.89 21.91 9.09"/><polygon class="cls-6" points="34.51 7.63 33.54 6.48 32.04 6.64 32.83 5.35 32.22 3.97 33.69 4.33 34.81 3.32 34.92 4.83 36.23 5.59 34.83 6.16 34.51 7.63"/><circle class="cls-9" cx="23.12" cy="2.17" r="0.45"/><polygon class="cls-6" points="8.87 43.41 7.72 43.35 7.01 44.26 6.72 43.15 5.64 42.76 6.61 42.13 6.64 40.98 7.54 41.71 8.64 41.39 8.22 42.46 8.87 43.41"/><polygon class="cls-6" points="40.34 43.48 39.49 42.62 38.29 42.83 38.85 41.75 38.28 40.68 39.48 40.88 40.32 40.01 40.5 41.21 41.59 41.74 40.51 42.28 40.34 43.48"/></g></g></svg>