<svg xmlns="http://www.w3.org/2000/svg" viewBox="0 0 50 50"><defs><style>.cls-1{isolation:isolate;}.cls-2{fill:#fff;}.cls-3{opacity:0.5;mix-blend-mode:multiply;}.cls-4{fill:#d4eae9;}.cls-5{fill:#88c4c0;}.cls-6{fill:#2b2b54;}.cls-7{fill:#a6a6b8;}</style></defs><title>icon</title><g class="cls-1"><g id="Capa_1" data-name="Capa 1"><circle class="cls-2" cx="39.73" cy="22.15" r="0.62"/><circle class="cls-2" cx="41.55" cy="22.15" r="0.62"/><circle class="cls-2" cx="43.37" cy="22.15" r="0.62"/><g class="cls-3"><circle class="cls-4" cx="23.33" cy="26.98" r="23.08"/></g><g class="cls-3"><circle class="cls-4" cx="26.67" cy="24.67" r="23.08"/></g><rect class="cls-5" x="13.13" y="4.29" width="23.37" height="17.37" rx="1.76" ry="1.76"/><path class="cls-6" d="M34.74,2.82H14.9a3.23,3.23,0,0,0-3.23,3.23V19.89a3.23,3.23,0,0,0,3.23,3.23H34.74A3.23,3.23,0,0,0,38,19.89V6.05A3.23,3.23,0,0,0,34.74,2.82Zm2.49,18.67a.89.89,0,0,1-.89.9H13.29a.89.89,0,0,1-.89-.9v-17a.89.89,0,0,1,.89-.9H36.34a.89.89,0,0,1,.89.9Z"/><path class="cls-6" d="M36.34,3.55H13.29a.89.89,0,0,0-.89.9v17a.89.89,0,0,0,.89.9H36.34a.89.89,0,0,0,.89-.9v-17A.89.89,0,0,0,36.34,3.55Zm.16,16.34a1.77,1.77,0,0,1-1.76,1.77H14.9a1.77,1.77,0,0,1-1.77-1.77V6.05A1.76,1.76,0,0,1,14.9,4.29H34.74A1.76,1.76,0,0,1,36.5,6.05Z"/><rect class="cls-5" x="10.03" y="26.56" width="29.58" height="17.37" rx="1.76" ry="1.76"/><path class="cls-6" d="M37.84,25.1H11.79a3.22,3.22,0,0,0-3.22,3.22V42.16a3.23,3.23,0,0,0,3.22,3.23H37.84a3.23,3.23,0,0,0,3.22-3.23V28.32A3.22,3.22,0,0,0,37.84,25.1Zm2.49,18.66a.89.89,0,0,1-.89.9H10.19a.89.89,0,0,1-.89-.9v-17a.89.89,0,0,1,.89-.89H39.44a.89.89,0,0,1,.89.89Z"/><path class="cls-6" d="M39.44,25.83H10.19a.89.89,0,0,0-.89.89v17a.89.89,0,0,0,.89.9H39.44a.89.89,0,0,0,.89-.9v-17A.89.89,0,0,0,39.44,25.83Zm.16,16.33a1.76,1.76,0,0,1-1.76,1.77H11.79A1.76,1.76,0,0,1,10,42.16V28.32a1.76,1.76,0,0,1,1.76-1.76H37.84a1.76,1.76,0,0,1,1.76,1.76Z"/><path class="cls-2" d="M36.87,43H13.13a.73.73,0,0,1,0-1.46H36.87a.73.73,0,0,1,0,1.46Z"/><path class="cls-2" d="M31.12,15.16a.43.43,0,0,1-.43.43H19a.43.43,0,1,1,0-.86H30.69A.43.43,0,0,1,31.12,15.16Z"/><path class="cls-2" d="M31.12,10.23a.44.44,0,0,1-.43.44H19a.44.44,0,0,1-.44-.44A.43.43,0,0,1,19,9.8H30.69A.43.43,0,0,1,31.12,10.23Z"/><path class="cls-2" d="M31.12,5.3a.44.44,0,0,1-.43.44H19a.44.44,0,0,1-.44-.44A.43.43,0,0,1,19,4.87H30.69A.43.43,0,0,1,31.12,5.3Z"/><path class="cls-2" d="M33.51.37H16.12a.8.8,0,0,0-.8.8V20.39a.79.79,0,0,0,.8.79H33.51a.79.79,0,0,0,.8-.79V1.17A.8.8,0,0,0,33.51.37Zm.37,20a.37.37,0,0,1-.37.36H16.12a.36.36,0,0,1-.36-.36V1.17a.36.36,0,0,1,.36-.36H33.51a.37.37,0,0,1,.37.36Z"/><path class="cls-6" d="M31.12,15.16a.43.43,0,0,1-.43.43H19a.43.43,0,1,1,0-.86H30.69A.43.43,0,0,1,31.12,15.16Z"/><path class="cls-6" d="M31.12,10.23a.44.44,0,0,1-.43.44H19a.44.44,0,0,1-.44-.44A.43.43,0,0,1,19,9.8H30.69A.43.43,0,0,1,31.12,10.23Z"/><path class="cls-6" d="M31.12,5.3a.44.44,0,0,1-.43.44H19a.44.44,0,0,1-.44-.44A.43.43,0,0,1,19,4.87H30.69A.43.43,0,0,1,31.12,5.3Z"/><path class="cls-6" d="M33.51-.06H16.12a1.23,1.23,0,0,0-1.23,1.23V20.39a1.23,1.23,0,0,0,1.23,1.23H33.51a1.23,1.23,0,0,0,1.23-1.23V1.17A1.23,1.23,0,0,0,33.51-.06Zm.37,20.45a.37.37,0,0,1-.37.36H16.12a.36.36,0,0,1-.36-.36V1.17a.36.36,0,0,1,.36-.36H33.51a.37.37,0,0,1,.37.36Z"/><path class="cls-2" d="M33.51.81H16.12a.36.36,0,0,0-.36.36V20.39a.36.36,0,0,0,.36.36H33.51a.37.37,0,0,0,.37-.36V1.17A.37.37,0,0,0,33.51.81ZM30.69,15.59H19a.43.43,0,1,1,0-.86H30.69a.43.43,0,0,1,0,.86Zm0-4.92H19a.44.44,0,0,1-.44-.44A.43.43,0,0,1,19,9.8H30.69a.43.43,0,0,1,.43.43A.44.44,0,0,1,30.69,10.67Zm0-4.93H19a.44.44,0,0,1-.44-.44A.43.43,0,0,1,19,4.87H30.69a.43.43,0,0,1,.43.43A.44.44,0,0,1,30.69,5.74Z"/><path class="cls-6" d="M31.12,15.16a.43.43,0,0,1-.43.43H19a.43.43,0,1,1,0-.86H30.69A.43.43,0,0,1,31.12,15.16Z"/><path class="cls-6" d="M31.12,10.23a.44.44,0,0,1-.43.44H19a.44.44,0,0,1-.44-.44A.43.43,0,0,1,19,9.8H30.69A.43.43,0,0,1,31.12,10.23Z"/><path class="cls-6" d="M18.51,5.3A.43.43,0,0,1,19,4.87H30.69a.43.43,0,0,1,.43.43.44.44,0,0,1-.43.44H19A.44.44,0,0,1,18.51,5.3Z"/><path class="cls-6" d="M31.12,15.16a.43.43,0,0,1-.43.43H19a.43.43,0,1,1,0-.86H30.69A.43.43,0,0,1,31.12,15.16Z"/><path class="cls-6" d="M31.12,10.23a.44.44,0,0,1-.43.44H19a.44.44,0,0,1-.44-.44A.43.43,0,0,1,19,9.8H30.69A.43.43,0,0,1,31.12,10.23Z"/><path class="cls-6" d="M31.12,5.3a.44.44,0,0,1-.43.44H19a.44.44,0,0,1-.44-.44A.43.43,0,0,1,19,4.87H30.69A.43.43,0,0,1,31.12,5.3Z"/><rect class="cls-5" x="3.2" y="19.8" width="43.22" height="17.37" rx="1.76" ry="1.76"/><path class="cls-6" d="M44.66,18.34H5a3.23,3.23,0,0,0-3.23,3.23V35.41A3.23,3.23,0,0,0,5,38.63H44.66a3.23,3.23,0,0,0,3.23-3.22V21.57A3.23,3.23,0,0,0,44.66,18.34ZM47.16,37a.89.89,0,0,1-.9.89H3.37a.89.89,0,0,1-.9-.89V20a.89.89,0,0,1,.9-.89H46.26a.89.89,0,0,1,.9.89Z"/><path class="cls-6" d="M46.26,19.07H3.37a.89.89,0,0,0-.9.89V37a.89.89,0,0,0,.9.89H46.26a.89.89,0,0,0,.9-.89V20A.89.89,0,0,0,46.26,19.07Zm.17,16.34a1.76,1.76,0,0,1-1.77,1.76H5A1.77,1.77,0,0,1,3.2,35.41V21.57A1.77,1.77,0,0,1,5,19.8H44.66a1.77,1.77,0,0,1,1.77,1.77Z"/><path class="cls-2" d="M5,31.21a.73.73,0,0,1-.73-.73V22.23A1.33,1.33,0,0,1,5.56,20.9H12.4a.73.73,0,1,1,0,1.46H5.69v8.12A.73.73,0,0,1,5,31.21Z"/><path class="cls-2" d="M44.9,36.23H4.73a.73.73,0,1,1,0-1.46H44.9a.73.73,0,0,1,0,1.46Z"/><path class="cls-7" d="M45,25.72a.61.61,0,1,1,.61-.61A.6.6,0,0,1,45,25.72Zm0-1.1a.49.49,0,0,0-.49.49.5.5,0,1,0,1,0A.49.49,0,0,0,45,24.62Z"/><path class="cls-7" d="M8.77,16.13A1.27,1.27,0,1,1,10,14.86,1.27,1.27,0,0,1,8.77,16.13Zm0-2.35a1.09,1.09,0,1,0,1.08,1.08A1.09,1.09,0,0,0,8.77,13.78Z"/></g></g></svg>