<svg id="Capa_1" data-name="Capa 1" xmlns="http://www.w3.org/2000/svg" viewBox="0 0 40 40"><defs><style>.cls-1{fill:#fff;}</style></defs><title>icon</title><path class="cls-1" d="M30,31.72H28.37a.84.84,0,0,1,0-1.68H30a4.19,4.19,0,1,0,0-8.37H28.37a.84.84,0,1,1,0-1.67H30a5.86,5.86,0,0,1,0,11.72Z"/><path class="cls-1" d="M25,40.09H10A4.2,4.2,0,0,1,5.77,35.9V17.49a.85.85,0,0,1,.84-.84H22.86l3.78-6.8a3.39,3.39,0,0,1-.73-1.07A3.55,3.55,0,0,1,26,6a6.45,6.45,0,0,1,.91-1.38c.94-1.19,1.48-2,.59-3.33a.84.84,0,0,1,0-.95A.83.83,0,0,1,28.37,0a6.18,6.18,0,0,1,4.7,4.69,5.64,5.64,0,0,1-1.41,5.52A3.22,3.22,0,0,1,30,11l-2.13,5.65h.46a.85.85,0,0,1,.84.84V35.9A4.2,4.2,0,0,1,25,40.09ZM7.44,18.33V35.9A2.51,2.51,0,0,0,10,38.41H25a2.51,2.51,0,0,0,2.51-2.51V18.33H7.44Zm17.33-1.68h1.35l2.19-5.81-.25-.09ZM28.24,9a1.77,1.77,0,0,0,.31.15,1.85,1.85,0,0,0,2-.17,4.05,4.05,0,0,0,.86-3.86A4.48,4.48,0,0,0,29.6,2.38a4.87,4.87,0,0,1-1.41,3.31,4.54,4.54,0,0,0-.67,1,1.8,1.8,0,0,0-.06,1.45,1.64,1.64,0,0,0,.63.76l0,0A.36.36,0,0,1,28.24,9Z"/><path class="cls-1" d="M13.3,18.33h-5a.84.84,0,0,1-.75-.47l-2.5-5a.8.8,0,0,1-.09-.26l-.83-5a.83.83,0,0,1,1.25-.85l4.17,2.5a.75.75,0,0,1,.25.22h0a.61.61,0,0,1,.07.1L14,17.08a.84.84,0,0,1-.74,1.25ZM8.8,16.65h3.08l-3-5.45-2,1.52ZM6.06,9.1,6.37,11,7.62,10Z"/><path class="cls-1" d="M21.67,18.33H15a.85.85,0,0,1-.84-.84V.75A.85.85,0,0,1,15-.09h6.69a.84.84,0,0,1,.84.84V17.49A.84.84,0,0,1,21.67,18.33Zm-5.86-1.68h5V15H20a.84.84,0,0,1,0-1.68h.84V11.63H18.33a.84.84,0,1,1,0-1.67h2.51V8.28H20a.84.84,0,1,1,0-1.67h.84V4.93H18.33a.84.84,0,1,1,0-1.67h2.51V1.59h-5V16.65Z"/></svg>