<svg id="Capa_1" data-name="Capa 1" xmlns="http://www.w3.org/2000/svg" viewBox="0 0 40 40"><defs><style>.cls-1{fill:#fff;}</style></defs><title>icon</title><path class="cls-1" d="M39,5.33a3.47,3.47,0,0,0-2.52-1H3.57a3.47,3.47,0,0,0-2.52,1A3.44,3.44,0,0,0,0,7.86V32.14a3.4,3.4,0,0,0,1.05,2.52,3.44,3.44,0,0,0,2.52,1.05H36.43A3.59,3.59,0,0,0,40,32.14V7.86A3.44,3.44,0,0,0,39,5.33ZM37.14,32.14a.67.67,0,0,1-.21.5.66.66,0,0,1-.5.22H3.57a.66.66,0,0,1-.5-.22.67.67,0,0,1-.21-.5V15A11.87,11.87,0,0,0,4.4,16.47q6,4.61,9.51,7.55c.76.64,1.37,1.14,1.85,1.49a10.59,10.59,0,0,0,1.93,1.09,5.64,5.64,0,0,0,2.29.54h0a5.64,5.64,0,0,0,2.29-.54,10.26,10.26,0,0,0,1.93-1.09c.48-.35,1.1-.85,1.85-1.49,2.36-2,5.52-4.48,9.51-7.55A11.87,11.87,0,0,0,37.14,15V32.14Zm0-23.7v.24a5.52,5.52,0,0,1-1,2.94,10.51,10.51,0,0,1-2.24,2.58l-8.95,7.07-.78.66c-.43.37-.77.64-1,.84s-.58.43-1,.7a5.55,5.55,0,0,1-1.13.61,2.5,2.5,0,0,1-1,.2h0a2.5,2.5,0,0,1-1-.2,5.55,5.55,0,0,1-1.13-.61c-.41-.27-.74-.51-1-.7s-.6-.47-1-.84l-.78-.66L6.14,14.2A7.81,7.81,0,0,1,2.86,7.86a.71.71,0,0,1,.21-.51.69.69,0,0,1,.5-.21H36.43a.37.37,0,0,0,.31.06c.09,0,.16,0,.2.17s.09.2.12.2.06.08.07.28,0,.29,0,.29v.3Z"/></svg>