<?xml version="1.0" encoding="utf-8"?>
<!-- Generator: Adobe Illustrator 22.0.1, SVG Export Plug-In . SVG Version: 6.00 Build 0)  -->
<svg version="1.1" id="Capa_1" xmlns="http://www.w3.org/2000/svg" xmlns:xlink="http://www.w3.org/1999/xlink" x="0px" y="0px"
	 viewBox="0 0 422.1 251.8" style="enable-background:new 0 0 422.1 251.8;" xml:space="preserve">
<style type="text/css">
	.st0{fill:#FFFFFF;}
</style>
<g>
	<g>
		<path class="st0" d="M5.1,164.7v16.1h19.5v-16.1h5.1v40.3h-5.1v-20H5.1v20H0v-40.3H5.1z"/>
		<path class="st0" d="M75,205.1h-5.6l-4.6-10.2H46.5l-4.7,10.2h-5.5l19.1-42.4L75,205.1z M48.3,190.2h14.4l-7.2-16.1L48.3,190.2z"
			/>
		<path class="st0" d="M93.1,164.7c2.9,0.2,5.3,1.2,7.1,2.9c1.8,1.7,3,3.6,3.6,5.5c0.1,0.5,0.2,0.9,0.3,1.4c0.1,0.4,0.1,0.9,0.1,1.3
			c0,3.6-1,6.4-3,8.3s-4.4,3.1-7.2,3.6l13.2,17.4h-6.4l-11.9-17h-2.2v17h-5.1v-40.3H93.1z M86.7,169.4v14.8c3.9,0,6.9-0.4,9.1-1.4
			c2.2-1,3.3-2.8,3.3-5.5c0-0.1,0-0.1,0-0.2c0-0.1,0-0.1,0-0.2c0-0.1-0.1-0.1-0.1-0.2c0-0.1,0-0.1,0-0.2c0,0,0-0.1,0-0.1s0,0,0-0.1
			c0-1.8-0.8-3.4-2.3-4.8s-4.3-2.2-8.5-2.2c-0.1,0-0.3,0-0.4,0c-0.1,0-0.2,0-0.4,0c-0.1,0-0.3,0.1-0.4,0.1S86.9,169.5,86.7,169.4
			L86.7,169.4z"/>
		<path class="st0" d="M118.4,164.7c0.6,0,1.3,0.1,2,0.1c0.7,0,1.4,0,2.1,0.1c2.7,0.1,5.2,0.8,7.4,1.9c2.3,1.2,3.5,3.6,3.7,7.3
			c0,2.3-0.4,4.3-1.3,5.7c-0.8,1.5-2.1,2.6-3.8,3.2c0.2,0,0.4,0,0.6,0.1c0.2,0,0.4,0.1,0.6,0.2c1.9,0.5,3.7,1.7,5.3,3.6
			c1.6,1.9,2.4,4.3,2.4,7.2c0,3.6-1.4,6.3-4.2,8.2c-2.8,1.9-6.4,2.8-10.7,2.8h-9.3v-40.3H118.4z M118.8,168.6v13.6
			c0.3,0.1,0.6,0.1,0.9,0.1c0.3,0,0.6,0,0.9,0c2.6,0,4.6-0.5,6-1.5c1.4-1,2-2.6,2-4.9c0,0,0-0.1,0-0.1s0-0.1,0-0.1
			c0-0.4,0-0.8,0-1.2c0-0.4-0.1-0.9-0.2-1.4c-0.3-1.1-1-2.1-2.1-3c-1.1-0.9-3.2-1.3-6.2-1.3c-0.2,0-0.4,0-0.6,0
			C119.3,168.6,119,168.6,118.8,168.6L118.8,168.6z M118.8,186v14.8c0.5,0.1,1.1,0.1,1.6,0.2c0.5,0.1,1,0.1,1.5,0.1
			c2.6,0,4.5-0.4,6-1.2c1.4-0.8,2.5-1.6,3.2-2.6c0.4-0.5,0.6-1.1,0.8-1.6c0.2-0.5,0.2-0.9,0.2-1.3c0-0.1,0-0.2,0-0.3
			c0-0.1,0-0.2,0-0.4c0-2.7-1-4.7-3.2-5.9C126.6,186.7,123.3,186.1,118.8,186L118.8,186z"/>
		<path class="st0" d="M141.6,164.7h6.8l9.3,17l9.4-17h6.4l-13.2,22.1v18.3h-5.6v-18.3L141.6,164.7z"/>
		<path class="st0" d="M210.9,164.7c2.9,0.2,5.3,1.2,7.1,2.9c1.8,1.7,3,3.6,3.6,5.5c0.1,0.5,0.2,0.9,0.3,1.4
			c0.1,0.4,0.1,0.9,0.1,1.3c0,3.6-1,6.4-3,8.3c-2,1.9-4.4,3.1-7.2,3.6l13.2,17.4h-6.4l-11.9-17h-2.2v17h-5.1v-40.3H210.9z
			 M204.5,169.4v14.8c3.9,0,6.9-0.4,9.1-1.4c2.2-1,3.3-2.8,3.3-5.5c0-0.1,0-0.1,0-0.2c0-0.1,0-0.1,0-0.2c0-0.1-0.1-0.1-0.1-0.2
			c0-0.1,0-0.1,0-0.2c0,0,0-0.1,0-0.1s0,0,0-0.1c0-1.8-0.8-3.4-2.3-4.8c-1.5-1.5-4.3-2.2-8.5-2.2c-0.1,0-0.3,0-0.4,0
			c-0.1,0-0.2,0-0.4,0c-0.1,0-0.3,0.1-0.4,0.1C204.8,169.5,204.7,169.5,204.5,169.4L204.5,169.4z"/>
		<path class="st0" d="M229.4,184.3c0.6-6.5,3-11.6,7.2-15.1c4.2-3.5,9.1-5.3,14.9-5.3c5,0,9.3,1.6,12.9,4.8
			c3.5,3.2,5.9,6.7,7.1,10.5c0.3,0.9,0.4,1.7,0.6,2.6c0.1,0.8,0.2,1.7,0.2,2.5c0,6.4-2,11.6-6,15.6c-4,4-9.4,6-16.2,6
			c-0.1,0-0.2,0-0.3,0c-0.1,0-0.2,0-0.3,0c-5.3,0-9.6-1.5-12.8-4.6c-3.2-3.1-5.3-6.5-6.4-10.2c-0.3-1-0.6-2-0.7-3
			c-0.1-1-0.2-2-0.2-2.9c0-0.2,0-0.3,0-0.5C229.4,184.6,229.4,184.5,229.4,184.3L229.4,184.3z M267.2,184.7
			c-0.3-4.5-1.5-7.8-3.6-10.1c-2.1-2.3-4.4-3.9-6.9-4.8c-0.9-0.4-1.8-0.6-2.7-0.8c-0.9-0.2-1.7-0.3-2.5-0.4c-0.1,0-0.1,0-0.2,0
			s-0.1,0-0.2,0c-0.1,0-0.1,0-0.2,0s-0.1,0-0.2,0c-4.5,0-8.2,1.5-11.3,4.7c-3.1,3.2-4.7,6.8-4.9,11c0,0.1,0,0.1,0,0.2
			c0,0.1,0,0.1,0,0.2c0,0.1,0,0.2,0,0.3c0,0.1,0,0.1,0,0.2c0,4.1,1.3,7.7,4.1,10.9c2.8,3.2,6.9,4.9,12.5,5.2c0.1,0,0.2,0,0.3,0
			c0.1,0,0.2,0,0.4,0c4.2,0,7.5-1.1,9.9-3.3c2.3-2.2,3.9-4.7,4.8-7.3c0.3-0.9,0.4-1.7,0.6-2.6c0.1-0.8,0.2-1.7,0.2-2.5
			c0-0.1,0-0.1,0-0.2c0-0.1,0-0.2,0-0.3c0-0.1-0.1-0.1-0.1-0.2C267.2,184.9,267.2,184.8,267.2,184.7L267.2,184.7z"/>
		<path class="st0" d="M284.1,164.7c0.6,0,1.3,0.1,2,0.1c0.7,0,1.4,0,2.1,0.1c2.7,0.1,5.2,0.8,7.4,1.9c2.3,1.2,3.5,3.6,3.7,7.3
			c0,2.3-0.4,4.3-1.3,5.7c-0.8,1.5-2.1,2.6-3.8,3.2c0.2,0,0.4,0,0.6,0.1c0.2,0,0.4,0.1,0.6,0.2c1.9,0.5,3.7,1.7,5.3,3.6
			c1.6,1.9,2.4,4.3,2.4,7.2c0,3.6-1.4,6.3-4.2,8.2c-2.8,1.9-6.4,2.8-10.7,2.8H279v-40.3H284.1z M284.5,168.6v13.6
			c0.3,0.1,0.6,0.1,0.9,0.1c0.3,0,0.6,0,0.9,0c2.6,0,4.6-0.5,6-1.5c1.4-1,2-2.6,2-4.9c0,0,0-0.1,0-0.1s0-0.1,0-0.1
			c0-0.4,0-0.8,0-1.2c0-0.4-0.1-0.9-0.2-1.4c-0.3-1.1-1-2.1-2.1-3c-1.1-0.9-3.2-1.3-6.2-1.3c-0.2,0-0.4,0-0.6,0
			C284.9,168.6,284.7,168.6,284.5,168.6L284.5,168.6z M284.5,186v14.8c0.5,0.1,1.1,0.1,1.6,0.2c0.5,0.1,1,0.1,1.5,0.1
			c2.6,0,4.5-0.4,6-1.2c1.4-0.8,2.5-1.6,3.2-2.6c0.4-0.5,0.6-1.1,0.8-1.6c0.2-0.5,0.2-0.9,0.2-1.3c0-0.1,0-0.2,0-0.3
			c0-0.1,0-0.2,0-0.4c0-2.7-1-4.7-3.2-5.9C292.3,186.7,289,186.1,284.5,186L284.5,186z"/>
		<path class="st0" d="M346.3,205.1h-5.6l-4.6-10.2h-18.3l-4.7,10.2h-5.5l19.1-42.4L346.3,205.1z M319.6,190.2H334l-7.2-16.1
			L319.6,190.2z"/>
		<path class="st0" d="M342.8,164.7h6.8l9.3,17l9.4-17h6.4l-13.2,22.1v18.3h-5.6v-18.3L342.8,164.7z"/>
		<path class="st0" d="M379.2,184.3c0.6-6.5,3-11.6,7.2-15.1c4.2-3.5,9.1-5.3,14.9-5.3c5,0,9.3,1.6,12.9,4.8
			c3.5,3.2,5.9,6.7,7.1,10.5c0.3,0.9,0.4,1.7,0.6,2.6c0.1,0.8,0.2,1.7,0.2,2.5c0,6.4-2,11.6-6,15.6c-4,4-9.4,6-16.2,6
			c-0.1,0-0.2,0-0.3,0c-0.1,0-0.2,0-0.3,0c-5.3,0-9.6-1.5-12.8-4.6c-3.2-3.1-5.3-6.5-6.4-10.2c-0.3-1-0.6-2-0.7-3
			c-0.1-1-0.2-2-0.2-2.9c0-0.2,0-0.3,0-0.5C379.2,184.6,379.2,184.5,379.2,184.3L379.2,184.3z M416.9,184.7
			c-0.3-4.5-1.5-7.8-3.6-10.1c-2.1-2.3-4.4-3.9-6.9-4.8c-0.9-0.4-1.8-0.6-2.7-0.8c-0.9-0.2-1.7-0.3-2.5-0.4c-0.1,0-0.1,0-0.2,0
			s-0.1,0-0.2,0s-0.1,0-0.2,0s-0.1,0-0.2,0c-4.5,0-8.2,1.5-11.3,4.7c-3.1,3.2-4.7,6.8-4.9,11c0,0.1,0,0.1,0,0.2c0,0.1,0,0.1,0,0.2
			c0,0.1,0,0.2,0,0.3c0,0.1,0,0.1,0,0.2c0,4.1,1.3,7.7,4.1,10.9c2.8,3.2,6.9,4.9,12.5,5.2c0.1,0,0.2,0,0.3,0c0.1,0,0.2,0,0.4,0
			c4.2,0,7.5-1.1,9.9-3.3c2.3-2.2,3.9-4.7,4.8-7.3c0.3-0.9,0.4-1.7,0.6-2.6c0.1-0.8,0.2-1.7,0.2-2.5c0-0.1,0-0.1,0-0.2
			c0-0.1,0-0.2,0-0.3c0-0.1-0.1-0.1-0.1-0.2C416.9,184.9,416.9,184.8,416.9,184.7L416.9,184.7z"/>
	</g>
	<g>
		<path class="st0" d="M28.9,230.3H31c2.2,0,3.7,0.7,4.5,2c0.9,1.4,1.3,3.9,1.3,7.6c0,3.5-0.4,6-1.3,7.4c-0.9,1.4-2.4,2.1-4.5,2.1
			h-2.1V230.3z M30.6,231.9v15.8h0.3c1.5,0,2.6-0.5,3.2-1.6c0.6-1.1,0.9-3.1,0.9-6c0-3.3-0.3-5.5-0.9-6.6c-0.6-1.1-1.6-1.6-3.1-1.6
			H30.6z"/>
		<path class="st0" d="M44,249.3v-19h1.7v19H44z"/>
		<path class="st0" d="M53.1,246.4c0.5,0.5,0.9,0.9,1.4,1.2c0.5,0.3,1,0.4,1.6,0.4c0.9,0,1.6-0.3,2.2-1s0.9-1.5,0.9-2.5
			c0-0.4-0.1-0.8-0.2-1.2c-0.1-0.4-0.3-0.7-0.5-1c-0.4-0.5-1-1.1-2-1.8c-0.4-0.3-0.7-0.5-0.8-0.6c-1-0.8-1.7-1.6-2.1-2.3
			c-0.4-0.8-0.6-1.6-0.6-2.5c0-1.4,0.4-2.6,1.3-3.6c0.8-0.9,1.9-1.4,3.2-1.4c0.5,0,1,0.1,1.5,0.3c0.5,0.2,1,0.4,1.4,0.8v2.2
			c-0.4-0.5-0.8-0.9-1.3-1.2c-0.5-0.3-1-0.4-1.6-0.4c-0.8,0-1.5,0.3-2,0.9c-0.5,0.6-0.8,1.4-0.8,2.3c0,0.8,0.2,1.5,0.5,2.1
			c0.3,0.6,1.2,1.3,2.5,2.3c1.3,1,2.2,1.8,2.6,2.6c0.4,0.7,0.6,1.6,0.6,2.6c0,1.5-0.4,2.8-1.3,3.7c-0.9,1-2,1.5-3.3,1.5
			c-0.6,0-1.1-0.1-1.7-0.2c-0.5-0.1-1-0.4-1.5-0.7V246.4z"/>
		<path class="st0" d="M67.9,230.3h6v1.6h-4.2v6.9h4.2v1.6h-4.2v7.4H74v1.6h-6.1V230.3z"/>
		<path class="st0" d="M81.4,230.3h1.5l4.3,13c0.1,0.2,0.2,0.6,0.4,1.3c0.2,0.7,0.4,1.6,0.7,2.7c-0.1-1.1-0.2-2.3-0.3-3.5
			c-0.1-1.2-0.1-2.4-0.1-3.7v-9.8h1.5v19h-1.5l-4.2-12.8c-0.2-0.6-0.4-1.3-0.6-1.9c-0.2-0.7-0.4-1.5-0.6-2.3
			c0.1,1.3,0.3,2.6,0.3,3.8c0.1,1.2,0.1,2.3,0.1,3.3v9.9h-1.5V230.3z M88.3,225.4c-0.2,0.8-0.4,1.3-0.7,1.7
			c-0.3,0.4-0.7,0.5-1.2,0.5c-0.1,0-0.3,0-0.4,0c-0.1,0-0.3-0.1-0.4-0.1l-0.9-0.3c0,0,0,0-0.1,0c-0.2-0.1-0.4-0.1-0.5-0.1
			c-0.2,0-0.4,0.1-0.5,0.2c-0.2,0.1-0.3,0.4-0.4,0.7h-0.8c0.2-0.7,0.4-1.3,0.7-1.7c0.3-0.4,0.7-0.6,1.2-0.6c0.2,0,0.3,0,0.4,0
			c0.1,0,0.2,0,0.3,0.1l1,0.4c0.1,0,0.2,0.1,0.3,0.1c0.1,0,0.2,0,0.2,0c0.2,0,0.4-0.1,0.6-0.2c0.2-0.1,0.3-0.4,0.4-0.7H88.3z"/>
		<path class="st0" d="M96.4,239.8c0-3.3,0.4-5.8,1.1-7.4c0.8-1.6,2-2.4,3.6-2.4c1.6,0,2.8,0.8,3.6,2.4c0.8,1.6,1.2,4.1,1.2,7.4
			c0,3.3-0.4,5.8-1.2,7.4c-0.8,1.6-2,2.4-3.6,2.4c-1.6,0-2.8-0.8-3.6-2.4C96.8,245.6,96.4,243.2,96.4,239.8z M101.2,231.6
			c-1,0-1.7,0.7-2.2,2c-0.5,1.3-0.7,3.4-0.7,6.2s0.2,4.9,0.7,6.2c0.5,1.3,1.2,2,2.2,2c1,0,1.8-0.6,2.2-1.9c0.5-1.3,0.7-3.4,0.7-6.2
			c0-2.8-0.2-4.9-0.7-6.2C102.9,232.3,102.2,231.6,101.2,231.6z"/>
		<path class="st0" d="M130,233.6l-1.6,0.7c-0.2-0.8-0.5-1.5-0.9-1.9c-0.4-0.4-0.8-0.7-1.4-0.7c-0.9,0-1.6,0.7-2.1,2
			c-0.5,1.3-0.7,3.4-0.7,6.1c0,2.9,0.2,5,0.6,6.3c0.4,1.3,1.1,1.9,2.1,1.9c0.7,0,1.3-0.3,1.7-1s0.5-1.7,0.5-3.1V241h-2.6v-1.6h4.4
			v4.3c0,2-0.3,3.5-1,4.5c-0.7,1-1.7,1.5-3,1.5c-1.5,0-2.7-0.8-3.4-2.3c-0.7-1.6-1.1-4-1.1-7.4c0-3.3,0.4-5.8,1.1-7.4
			c0.8-1.6,1.9-2.4,3.5-2.4c0.9,0,1.7,0.3,2.3,0.9C129.2,231.6,129.7,232.5,130,233.6z"/>
		<path class="st0" d="M137,230.3h2.1c1.8,0,3.1,0.4,3.9,1.1c0.8,0.8,1.1,2,1.1,3.9c0,1.5-0.3,2.7-0.9,3.4c-0.6,0.8-1.5,1.2-2.7,1.3
			l4.1,9.3h-1.8l-4.2-9.8v9.8H137V230.3z M138.7,231.9v6.9h0.8c1,0,1.7-0.3,2.1-0.8c0.4-0.5,0.7-1.4,0.7-2.6c0-1.2-0.2-2.1-0.7-2.7
			c-0.4-0.5-1.1-0.8-2.1-0.8H138.7z"/>
		<path class="st0" d="M153.7,230.3h1.7l3.9,19h-1.8l-0.7-3.8h-4.4l-0.7,3.8h-1.8L153.7,230.3z M154.2,235.1l-1.6,8.9h3.8l-1.5-8.9
			c-0.1-0.3-0.1-0.8-0.2-1.2c-0.1-0.5-0.1-1-0.1-1.6c0,0.5-0.1,1.1-0.1,1.5C154.3,234.2,154.3,234.7,154.2,235.1z M156.9,224
			l-2.8,4.5h-1l2.2-4.5H156.9z"/>
		<path class="st0" d="M165.5,230.3h6v1.6h-4.2v6.8h4.2v1.5h-4.2v9.1h-1.7V230.3z"/>
		<path class="st0" d="M178.4,249.3v-19h1.7v19H178.4z"/>
		<path class="st0" d="M194.8,248.8c-0.4,0.2-0.8,0.4-1.2,0.5c-0.4,0.1-0.9,0.2-1.3,0.2c-1.7,0-3-0.8-3.8-2.3
			c-0.8-1.6-1.2-3.9-1.2-7.2c0-3.2,0.4-5.6,1.3-7.3c0.9-1.7,2.2-2.5,3.9-2.5c0.4,0,0.8,0,1.2,0.1c0.4,0.1,0.8,0.2,1.1,0.4v1.9
			c-0.4-0.3-0.8-0.5-1.1-0.6c-0.3-0.1-0.7-0.2-1-0.2c-1.3,0-2.2,0.6-2.8,1.9c-0.6,1.3-0.9,3.3-0.9,6c0,2.9,0.3,5,0.8,6.2
			c0.5,1.2,1.4,1.8,2.7,1.8c0.3,0,0.5,0,0.7-0.1s0.5-0.1,0.7-0.2c0.1-0.1,0.3-0.1,0.4-0.2c0.1-0.1,0.3-0.2,0.4-0.3V248.8z"/>
		<path class="st0" d="M200.3,239.8c0-3.3,0.4-5.8,1.1-7.4c0.8-1.6,2-2.4,3.6-2.4c1.6,0,2.8,0.8,3.6,2.4c0.8,1.6,1.2,4.1,1.2,7.4
			c0,3.3-0.4,5.8-1.2,7.4c-0.8,1.6-2,2.4-3.6,2.4c-1.6,0-2.8-0.8-3.6-2.4C200.7,245.6,200.3,243.2,200.3,239.8z M205.1,231.6
			c-1,0-1.7,0.7-2.2,2c-0.5,1.3-0.7,3.4-0.7,6.2s0.2,4.9,0.7,6.2c0.5,1.3,1.2,2,2.2,2c1,0,1.8-0.6,2.2-1.9c0.5-1.3,0.7-3.4,0.7-6.2
			c0-2.8-0.2-4.9-0.7-6.2C206.8,232.3,206.1,231.6,205.1,231.6z"/>
		<path class="st0" d="M231.1,230h1.5l-8.1,21.8H223L231.1,230z"/>
		<path class="st0" d="M247.5,230.3h2.2c2.2,0,3.7,0.7,4.5,2s1.3,3.9,1.3,7.6c0,3.5-0.4,6-1.3,7.4c-0.9,1.4-2.4,2.1-4.5,2.1h-2.1
			V230.3z M249.3,231.9v15.8h0.3c1.5,0,2.6-0.5,3.2-1.6c0.6-1.1,0.9-3.1,0.9-6c0-3.3-0.3-5.5-0.9-6.6c-0.6-1.1-1.6-1.6-3.1-1.6
			H249.3z"/>
		<path class="st0" d="M262.7,249.3v-19h1.7v19H262.7z"/>
		<path class="st0" d="M271.8,246.4c0.5,0.5,0.9,0.9,1.4,1.2c0.5,0.3,1,0.4,1.6,0.4c0.9,0,1.6-0.3,2.2-1s0.9-1.5,0.9-2.5
			c0-0.4-0.1-0.8-0.2-1.2c-0.1-0.4-0.3-0.7-0.5-1c-0.4-0.5-1-1.1-2-1.8c-0.4-0.3-0.7-0.5-0.8-0.6c-1-0.8-1.7-1.6-2.1-2.3
			c-0.4-0.8-0.6-1.6-0.6-2.5c0-1.4,0.4-2.6,1.3-3.6c0.8-0.9,1.9-1.4,3.2-1.4c0.5,0,1,0.1,1.5,0.3c0.5,0.2,1,0.4,1.4,0.8v2.2
			c-0.4-0.5-0.8-0.9-1.3-1.2c-0.5-0.3-1-0.4-1.6-0.4c-0.8,0-1.5,0.3-2,0.9c-0.5,0.6-0.8,1.4-0.8,2.3c0,0.8,0.2,1.5,0.5,2.1
			c0.3,0.6,1.2,1.3,2.5,2.3c1.3,1,2.2,1.8,2.6,2.6c0.4,0.7,0.6,1.6,0.6,2.6c0,1.5-0.4,2.8-1.3,3.7c-0.9,1-2,1.5-3.3,1.5
			c-0.6,0-1.1-0.1-1.7-0.2c-0.5-0.1-1-0.4-1.5-0.7V246.4z"/>
		<path class="st0" d="M286.6,230.3h6v1.6h-4.2v6.9h4.2v1.6h-4.2v7.4h4.4v1.6h-6.1V230.3z"/>
		<path class="st0" d="M300,230.3h1.5l4.3,13c0.1,0.2,0.2,0.6,0.4,1.3c0.2,0.7,0.4,1.6,0.7,2.7c-0.1-1.1-0.2-2.3-0.3-3.5
			c-0.1-1.2-0.1-2.4-0.1-3.7v-9.8h1.5v19h-1.5l-4.2-12.8c-0.2-0.6-0.4-1.3-0.6-1.9c-0.2-0.7-0.4-1.5-0.6-2.3
			c0.1,1.3,0.3,2.6,0.3,3.8c0.1,1.2,0.1,2.3,0.1,3.3v9.9H300V230.3z M307,225.4c-0.2,0.8-0.4,1.3-0.7,1.7c-0.3,0.4-0.7,0.5-1.2,0.5
			c-0.1,0-0.3,0-0.4,0c-0.1,0-0.3-0.1-0.4-0.1l-0.9-0.3c0,0,0,0-0.1,0c-0.2-0.1-0.4-0.1-0.5-0.1c-0.2,0-0.4,0.1-0.5,0.2
			c-0.2,0.1-0.3,0.4-0.4,0.7H301c0.2-0.7,0.4-1.3,0.7-1.7c0.3-0.4,0.7-0.6,1.2-0.6c0.2,0,0.3,0,0.4,0c0.1,0,0.2,0,0.3,0.1l1,0.4
			c0.1,0,0.2,0.1,0.3,0.1c0.1,0,0.2,0,0.2,0c0.2,0,0.4-0.1,0.6-0.2c0.2-0.1,0.3-0.4,0.4-0.7H307z"/>
		<path class="st0" d="M315.1,239.8c0-3.3,0.4-5.8,1.1-7.4c0.8-1.6,2-2.4,3.6-2.4c1.6,0,2.8,0.8,3.6,2.4c0.8,1.6,1.2,4.1,1.2,7.4
			c0,3.3-0.4,5.8-1.2,7.4c-0.8,1.6-2,2.4-3.6,2.4c-1.6,0-2.8-0.8-3.6-2.4C315.5,245.6,315.1,243.2,315.1,239.8z M319.8,231.6
			c-1,0-1.7,0.7-2.2,2c-0.5,1.3-0.7,3.4-0.7,6.2s0.2,4.9,0.7,6.2c0.5,1.3,1.2,2,2.2,2c1,0,1.8-0.6,2.2-1.9c0.5-1.3,0.7-3.4,0.7-6.2
			c0-2.8-0.2-4.9-0.7-6.2C321.6,232.3,320.9,231.6,319.8,231.6z"/>
		<path class="st0" d="M339.7,230.3h1.7l1.8,11.9c0.1,0.7,0.2,1.5,0.3,2.3s0.1,1.8,0.2,2.8c0.1-0.6,0.1-1.3,0.2-2
			c0.1-0.7,0.2-1.6,0.4-2.6l2-12.5h1.6l2,12.6c0.1,0.6,0.2,1.2,0.3,1.9c0.1,0.7,0.1,1.5,0.2,2.4c0.1-0.9,0.2-1.9,0.3-2.9
			c0.1-1,0.2-1.5,0.2-1.6l1.7-12.5h1.7l-3.2,19h-1.5l-2-12.6c-0.2-1-0.3-1.9-0.4-2.5c-0.1-0.7-0.1-1.3-0.1-1.8
			c0,0.7-0.1,1.4-0.2,2.1c-0.1,0.7-0.2,1.4-0.3,2.2l-2.1,12.7h-1.6L339.7,230.3z"/>
		<path class="st0" d="M360.5,230.3h6v1.6h-4.2v6.9h4.2v1.6h-4.2v7.4h4.4v1.6h-6.1V230.3z"/>
		<path class="st0" d="M374,230.3h2.8c1.5,0,2.5,0.4,3.2,1.2c0.7,0.8,1,2,1,3.7c0,1.2-0.2,2.2-0.6,3c-0.4,0.8-1,1.2-1.8,1.4
			c1,0.3,1.7,0.8,2.1,1.6c0.5,0.8,0.7,1.8,0.7,3.2c0,1.7-0.4,3-1.2,3.8c-0.8,0.8-2,1.3-3.6,1.3H374V230.3z M375.8,231.8v6.9h1.1
			c0.9,0,1.6-0.3,1.9-0.8c0.4-0.5,0.6-1.4,0.6-2.7c0-1.3-0.2-2.1-0.6-2.7c-0.4-0.5-1-0.8-1.9-0.8H375.8z M375.8,240.3v7.5h0.8
			c1.2,0,2-0.3,2.5-0.8c0.5-0.5,0.7-1.5,0.7-2.8c0-1.3-0.2-2.3-0.7-2.9c-0.5-0.6-1.2-0.9-2.2-0.9H375.8z"/>
	</g>
	<g>
		<path class="st0" d="M228.8,73.5c1.1,2.6,1.9,5.2,2.6,8c1.2-2.3,2.8-4.4,4.6-6.2c2.3-2.3,5-4.1,8.1-5.5c1.8-0.8,3.8-1.4,5.8-1.7
			V46.6c-5,0.4-9.7,1.5-14.1,3.4c-5.7,2.4-10.7,5.8-14.9,10c-0.1,0.1-0.2,0.2-0.3,0.4C223.8,64.2,226.6,68.6,228.8,73.5L228.8,73.5z
			"/>
		<path class="st0" d="M224.3,74.6c-1.8-4.1-4-7.8-6.7-11.2c-0.5-0.6-1-1.2-1.4-1.7c-0.5-0.6-1-1.1-1.5-1.7
			c-0.2-0.2-0.4-0.5-0.7-0.7c-4.3-4.3-9.4-7.7-15.3-10.2c-3.8-1.6-8-2.7-12.3-3.2v23.6v0.4c1.1,0.3,2.1,0.6,3.1,1.1
			c1.2,0.5,2.3,1.1,3.3,1.8c1.6,1,3.1,2.1,4.4,3.5c2.2,2.2,3.9,4.8,5.2,7.6c0.2,0.4,0.4,0.9,0.5,1.4c0.7,1.8,1.1,3.8,1.3,5.8
			c0.1,0.7,0.1,1.5,0.1,2.3v48.1h0h0.2h1h1.1h21.4v-1.1V93.5C228.1,86.7,226.8,80.4,224.3,74.6z"/>
		<polygon class="st0" points="160.6,0 160.6,141.3 182,141.3 182,71.4 182,70.3 182,44.4 182,43.3 182,0 		"/>
	</g>
</g>
</svg>
