<svg xmlns="http://www.w3.org/2000/svg" viewBox="0 0 148.08 142.39"><defs><style>.cls-1{isolation:isolate;}.cls-2{opacity:0.5;}.cls-2,.cls-8{mix-blend-mode:multiply;}.cls-3{fill:#d4eae9;}.cls-4{fill:#fff;}.cls-5{fill:#2b2b54;}.cls-6{fill:#88c4c0;}.cls-7{fill:#d2d2db;}.cls-8{opacity:0.14;}.cls-9{fill:#5a9e97;}</style></defs><title>plan</title><g class="cls-1"><g id="Capa_1" data-name="Capa 1"><g class="cls-2"><circle class="cls-3" cx="67.08" cy="76.04" r="61.14"/></g><g class="cls-2"><circle class="cls-3" cx="75.91" cy="69.93" r="61.14"/></g><rect class="cls-4" x="14.86" y="33.52" width="118.36" height="76.82" rx="13.67" ry="13.67"/><path class="cls-5" d="M126.61,112.27H21.47a8.56,8.56,0,0,1-8.55-8.54V40.13a8.57,8.57,0,0,1,8.55-8.55H126.61a8.56,8.56,0,0,1,8.54,8.55v63.6A8.55,8.55,0,0,1,126.61,112.27ZM21.47,35.45a4.69,4.69,0,0,0-4.68,4.68v63.6a4.68,4.68,0,0,0,4.68,4.67H126.61a4.68,4.68,0,0,0,4.68-4.67V40.13a4.69,4.69,0,0,0-4.68-4.68Z"/><path class="cls-6" d="M26.08,35.09h95.83a9.38,9.38,0,0,1,9.38,9.38v3.17a0,0,0,0,1,0,0H16.7a0,0,0,0,1,0,0V44.46A9.38,9.38,0,0,1,26.08,35.09Z"/><circle class="cls-4" cx="116.45" cy="40.57" r="1.65"/><circle class="cls-4" cx="121.27" cy="40.57" r="1.65"/><circle class="cls-4" cx="126.08" cy="40.57" r="1.65"/><rect class="cls-7" x="19.56" y="50.76" width="34.3" height="27.44"/><rect class="cls-7" x="19.56" y="80.55" width="34.3" height="25.08"/><rect class="cls-3" x="56.89" y="50.76" width="34.3" height="54.87"/><rect class="cls-7" x="94.22" y="50.76" width="34.3" height="35.27"/><rect class="cls-7" x="94.22" y="88.39" width="34.3" height="17.24"/><circle class="cls-6" cx="74.04" cy="115.63" r="2.55"/><path class="cls-5" d="M107,122.46H41.51a1.94,1.94,0,1,1,0-3.87H107a1.94,1.94,0,0,1,0,3.87Z"/><g class="cls-8"><path class="cls-4" d="M131.82,37.13H16.31L4.76,62.44H4.7a11.55,11.55,0,0,0,23.1,0,11.55,11.55,0,0,0,23.1,0,11.55,11.55,0,0,0,23.1,0,11.55,11.55,0,0,0,23.1,0,11.55,11.55,0,0,0,23.1,0h.06a11.55,11.55,0,0,0,23.1,0h0Z"/><path class="cls-5" d="M131.81,75.71a13.46,13.46,0,0,1-11.58-6.58,13.48,13.48,0,0,1-23.13.05,13.48,13.48,0,0,1-23.1,0,13.48,13.48,0,0,1-23.1,0,13.48,13.48,0,0,1-23.1,0,13.46,13.46,0,0,1-25-6.73,2,2,0,0,1,.41-1.2L14.6,36.31a1.87,1.87,0,0,1,1.71-1.11H131.82a1.87,1.87,0,0,1,1.71,1.11l11.56,25.31a1.94,1.94,0,0,1,.15,1.11A13.42,13.42,0,0,1,131.81,75.71ZM120.2,60.51h.06a1.91,1.91,0,0,1,1.89,1.92,9.67,9.67,0,0,0,19.31.38L130.62,39.06H17.51L6.61,63a9.67,9.67,0,0,0,19.3-.52,1.91,1.91,0,0,1,1.89-1.92h0a1.91,1.91,0,0,1,1.89,1.92,9.66,9.66,0,0,0,19.32,0,1.89,1.89,0,1,1,3.78,0,9.66,9.66,0,0,0,19.32,0,1.89,1.89,0,1,1,3.78,0,9.66,9.66,0,0,0,19.32,0,1.89,1.89,0,1,1,3.78,0,9.66,9.66,0,0,0,19.32,0A1.91,1.91,0,0,1,120.2,60.51Z"/></g><path class="cls-4" d="M131.82,33.26H16.31L4.76,58.57H4.7a11.55,11.55,0,0,0,23.1,0,11.55,11.55,0,0,0,23.1,0,11.55,11.55,0,0,0,23.1,0,11.55,11.55,0,0,0,23.1,0,11.55,11.55,0,0,0,23.1,0h.06a11.55,11.55,0,0,0,23.1,0h0Z"/><path class="cls-5" d="M131.81,71.85a13.48,13.48,0,0,1-11.58-6.58,13.47,13.47,0,0,1-23.13,0,13.47,13.47,0,0,1-23.1,0,13.47,13.47,0,0,1-23.1,0,13.47,13.47,0,0,1-23.1,0,13.45,13.45,0,0,1-25-6.73,2,2,0,0,1,.41-1.2L14.6,32.44a1.87,1.87,0,0,1,1.71-1.11H131.82a1.87,1.87,0,0,1,1.71,1.11l11.56,25.31a2,2,0,0,1,.15,1.11A13.42,13.42,0,0,1,131.81,71.85ZM120.2,56.64h.06a1.91,1.91,0,0,1,1.89,1.92,9.67,9.67,0,0,0,19.31.38L130.62,35.19H17.51L6.61,59.08a9.67,9.67,0,0,0,19.3-.52,1.91,1.91,0,0,1,1.89-1.92h0a1.91,1.91,0,0,1,1.89,1.92,9.66,9.66,0,0,0,19.32,0,1.89,1.89,0,1,1,3.78,0,9.66,9.66,0,0,0,19.32,0,1.89,1.89,0,1,1,3.78,0,9.66,9.66,0,0,0,19.32,0,1.89,1.89,0,1,1,3.78,0,9.66,9.66,0,0,0,19.32,0A1.91,1.91,0,0,1,120.2,56.64Z"/><path class="cls-4" d="M4.71,58.57a11.55,11.55,0,0,0,23.1,0Z"/><path class="cls-9" d="M27.81,58.57a11.55,11.55,0,0,0,23.1,0Z"/><path class="cls-4" d="M50.91,58.57a11.55,11.55,0,0,0,23.1,0Z"/><path class="cls-9" d="M74,58.57a11.55,11.55,0,0,0,23.1,0Z"/><path class="cls-4" d="M97.11,58.57a11.55,11.55,0,0,0,23.1,0Z"/><path class="cls-9" d="M120.27,58.51a11.55,11.55,0,0,0,23.1,0Z"/><polygon class="cls-9" points="27.83 58.57 4.73 58.57 16.28 33.88 35.53 33.88 27.83 58.57"/><polygon class="cls-4" points="50.94 58.57 27.83 58.57 35.53 33.88 54.79 33.88 50.94 58.57"/><polygon class="cls-9" points="74.04 58.57 50.94 58.57 54.79 33.88 74.04 33.88 74.04 58.57"/><polygon class="cls-4" points="97.14 58.57 74.04 58.57 74.04 33.88 93.29 33.88 97.14 58.57"/><polygon class="cls-9" points="120.25 58.57 97.14 58.57 93.29 33.88 112.54 33.88 120.25 58.57"/><polygon class="cls-4" points="143.35 58.57 120.25 58.57 112.54 33.88 131.8 33.88 143.35 58.57"/><circle class="cls-6" cx="32.51" cy="20.41" r="1.41"/><circle class="cls-6" cx="58.14" cy="24.94" r="2.26"/><circle class="cls-6" cx="69.18" cy="8.79" r="3.59"/><circle class="cls-6" cx="111.37" cy="16.95" r="0.88"/><circle class="cls-5" cx="97.11" cy="22.59" r="1.57"/></g></g></svg>