<svg xmlns="http://www.w3.org/2000/svg" viewBox="0 0 473.82 132.68"><defs><style>.cls-1{isolation:isolate;}.cls-2{opacity:0.5;}.cls-11,.cls-12,.cls-2,.cls-8{mix-blend-mode:multiply;}.cls-3{fill:#d4eae9;}.cls-4{fill:#fff;}.cls-5{fill:#2b2b54;}.cls-6{fill:#88c4c0;}.cls-7{fill:#d2d2db;}.cls-8{opacity:0.26;}.cls-9{fill:#a6a6b8;}.cls-10{fill:#5a9e97;}.cls-11{opacity:0.22;}.cls-12{opacity:0.14;}</style></defs><title>plan</title><g class="cls-1"><g id="Capa_1" data-name="Capa 1"><g class="cls-2"><circle class="cls-3" cx="61.92" cy="69.4" r="61.14"/></g><g class="cls-2"><circle class="cls-3" cx="70.75" cy="63.28" r="61.14"/></g><rect class="cls-4" x="13.23" y="26.83" width="118.36" height="76.82" rx="13.67" ry="13.67"/><path class="cls-5" d="M132.26,110.44H27.11a8.55,8.55,0,0,1-8.54-8.55V38.29a8.55,8.55,0,0,1,8.54-8.54H132.26a8.55,8.55,0,0,1,8.54,8.54v63.6A8.55,8.55,0,0,1,132.26,110.44ZM27.11,33.62a4.68,4.68,0,0,0-4.67,4.67v63.6a4.68,4.68,0,0,0,4.67,4.68H132.26a4.68,4.68,0,0,0,4.67-4.68V38.29a4.68,4.68,0,0,0-4.67-4.67Z" transform="translate(-7.28 -4.85)"/><path class="cls-6" d="M24.17,28.4h96.11a9.38,9.38,0,0,1,9.38,9.38v3.17a0,0,0,0,1,0,0H14.79a0,0,0,0,1,0,0V37.77A9.38,9.38,0,0,1,24.17,28.4Z"/><circle class="cls-4" cx="114.82" cy="33.89" r="1.65"/><circle class="cls-4" cx="119.64" cy="33.89" r="1.65"/><circle class="cls-4" cx="124.45" cy="33.89" r="1.65"/><rect class="cls-7" x="17.93" y="44.08" width="34.3" height="27.44"/><rect class="cls-7" x="17.93" y="73.86" width="34.3" height="25.08"/><rect class="cls-3" x="55.26" y="44.08" width="34.3" height="54.87"/><rect class="cls-7" x="92.58" y="44.08" width="34.3" height="35.27"/><rect class="cls-7" x="92.58" y="81.7" width="34.3" height="17.24"/><g class="cls-8"><rect class="cls-5" x="0.45" y="35.29" width="76.26" height="42" rx="13.67" ry="13.67" transform="translate(-31.66 77.77) rotate(-78.26)"/></g><rect class="cls-4" x="-2.12" y="31.37" width="76.26" height="42" rx="13.67" ry="13.67" transform="translate(-29.87 72.12) rotate(-78.26)"/><path class="cls-5" d="M44.89,94.29l-33.72-7a4.89,4.89,0,0,1-3.79-5.78l14-67.27a4.89,4.89,0,0,1,5.77-3.79l33.73,7a4.89,4.89,0,0,1,3.78,5.77l-14,67.28A4.89,4.89,0,0,1,44.89,94.29ZM26.68,12.62a2.68,2.68,0,0,0-3.16,2.07L9.54,82a2.67,2.67,0,0,0,2.08,3.16l33.72,7a2.67,2.67,0,0,0,3.16-2.07l14-67.28a2.68,2.68,0,0,0-2.07-3.16Z" transform="translate(-7.28 -4.85)"/><path class="cls-6" d="M28.54,16H56.75a5.79,5.79,0,0,1,5.79,5.79v3.05a0,0,0,0,1,0,0H22.75a0,0,0,0,1,0,0V21.82A5.79,5.79,0,0,1,28.54,16Z" transform="translate(-2.22 -13.1) rotate(11.74)"/><rect class="cls-7" x="26.39" y="22.92" width="24.18" height="35.09" transform="translate(-16.24 65.06) rotate(-78.26)"/><rect class="cls-7" x="20.66" y="50.52" width="24.18" height="35.09" transform="translate(-47.83 81.43) rotate(-78.26)"/><path class="cls-5" d="M8.46,80.69H49.91a0,0,0,0,1,0,0v1.87a7.25,7.25,0,0,1-7.25,7.25H15.71a7.25,7.25,0,0,1-7.25-7.25V80.69a0,0,0,0,1,0,0Z" transform="translate(10.68 -9.01) rotate(11.74)"/><circle class="cls-4" cx="21.91" cy="80.39" r="2.07"/><polygon class="cls-7" points="19.11 41.17 31.39 29.72 38.31 45.15 19.11 41.17"/><circle class="cls-6" cx="97.88" cy="16.64" r="0.78"/><circle class="cls-6" cx="73.78" cy="108.94" r="2.55"/><circle class="cls-9" cx="75.35" cy="14.09" r="1.76"/><line class="cls-4" x1="39.88" y1="113.84" x2="105.33" y2="113.84"/><path class="cls-5" d="M112.61,120.63H47.15a1.94,1.94,0,0,1,0-3.87h65.46a1.94,1.94,0,0,1,0,3.87Z" transform="translate(-7.28 -4.85)"/><circle class="cls-9" cx="22.04" cy="109.33" r="1.76"/><circle class="cls-6" cx="54.38" cy="6.45" r="2.74"/><g class="cls-2"><circle class="cls-3" cx="393.15" cy="71.54" r="61.14"/></g><g class="cls-2"><circle class="cls-3" cx="401.98" cy="65.43" r="61.14"/></g><rect class="cls-4" x="342.23" y="29.54" width="118.36" height="76.82" rx="13.67" ry="13.67"/><path class="cls-5" d="M461.26,113.14H356.11a8.55,8.55,0,0,1-8.54-8.54V41a8.56,8.56,0,0,1,8.54-8.55H461.26A8.56,8.56,0,0,1,469.8,41v63.6A8.55,8.55,0,0,1,461.26,113.14ZM356.11,36.32A4.68,4.68,0,0,0,351.44,41v63.6a4.67,4.67,0,0,0,4.67,4.67H461.26a4.68,4.68,0,0,0,4.67-4.67V41a4.68,4.68,0,0,0-4.67-4.68Z" transform="translate(-7.28 -4.85)"/><path class="cls-6" d="M353.44,31.1h95.83a9.37,9.37,0,0,1,9.37,9.37v3.17a0,0,0,0,1,0,0H344.07a0,0,0,0,1,0,0V40.48a9.37,9.37,0,0,1,9.37-9.37Z"/><circle class="cls-4" cx="443.82" cy="36.59" r="1.65"/><circle class="cls-4" cx="448.64" cy="36.59" r="1.65"/><circle class="cls-4" cx="453.45" cy="36.59" r="1.65"/><rect class="cls-10" x="346.93" y="46.78" width="34.3" height="54.87"/><rect class="cls-3" x="384.26" y="46.78" width="71.63" height="54.87"/><rect class="cls-4" x="387.52" y="50.92" width="64.27" height="35.27"/><rect class="cls-4" x="387.52" y="89.11" width="64.27" height="9.43"/><circle class="cls-4" cx="363.44" cy="60.45" r="12.44"/><path class="cls-4" d="M374.82,86.83H359.63a1.94,1.94,0,0,1,0-3.87h15.19a1.94,1.94,0,1,1,0,3.87Z" transform="translate(-7.28 -4.85)"/><path class="cls-4" d="M384.3,94.09H359.63a1.94,1.94,0,0,1,0-3.87H384.3a1.94,1.94,0,0,1,0,3.87Z" transform="translate(-7.28 -4.85)"/><path class="cls-4" d="M374.82,101.34H359.63a1.94,1.94,0,0,1,0-3.87h15.19a1.94,1.94,0,1,1,0,3.87Z" transform="translate(-7.28 -4.85)"/><circle class="cls-5" cx="363.44" cy="57" r="4.19"/><path class="cls-5" d="M377.64,73a7,7,0,0,0-13.86,0Z" transform="translate(-7.28 -4.85)"/><circle class="cls-6" cx="401.41" cy="111.64" r="2.55"/><circle class="cls-4" cx="437.83" cy="54.47" r="34.06"/><path class="cls-5" d="M445.11,95.32a36,36,0,1,1,36-36A36,36,0,0,1,445.11,95.32Zm0-68.12a32.13,32.13,0,1,0,32.12,32.13A32.16,32.16,0,0,0,445.11,27.2Z" transform="translate(-7.28 -4.85)"/><line class="cls-4" x1="368.88" y1="116.54" x2="434.33" y2="116.54"/><path class="cls-5" d="M441.61,123.33H376.15a1.94,1.94,0,0,1,0-3.87h65.46a1.94,1.94,0,0,1,0,3.87Z" transform="translate(-7.28 -4.85)"/><g class="cls-11"><path class="cls-5" d="M445.6,44.78,418,84.71a2.48,2.48,0,0,0-.45,1.44L417.46,103a2.54,2.54,0,0,0,3.45,2.39l15.69-6a2.72,2.72,0,0,0,1.27-1l27.61-39.88a2.55,2.55,0,0,0-.65-3.55L449.14,44.13A2.54,2.54,0,0,0,445.6,44.78Z" transform="translate(-7.28 -4.85)"/></g><rect class="cls-6" x="426.43" y="42.06" width="23.23" height="51.86" transform="translate(109.28 -242.07) rotate(34.69)"/><rect class="cls-10" x="427.98" y="37.1" width="5.81" height="51.86" transform="translate(105.18 -238.87) rotate(34.69)"/><rect class="cls-10" x="435.14" y="42.06" width="5.81" height="51.86" transform="translate(109.28 -242.07) rotate(34.69)"/><rect class="cls-10" x="442.87" y="47.41" width="5.81" height="51.86" transform="translate(113.7 -245.52) rotate(34.69)"/><polygon class="cls-4" points="426.32 89.97 408.43 97.13 407.39 76.92 426.32 89.97"/><path class="cls-5" d="M416.41,104.1a4.49,4.49,0,0,1-4.48-4.49l0-16.84a4.47,4.47,0,0,1,.8-2.53l27.64-39.93h0a4.4,4.4,0,0,1,2.88-1.86,4.5,4.5,0,0,1,3.36.72L462.34,50a4.5,4.5,0,0,1,1.13,6.24L435.86,96.15a4.68,4.68,0,0,1-2.17,1.71l-15.69,6A4.35,4.35,0,0,1,416.41,104.1ZM444.1,42.24H444a.66.66,0,0,0-.39.26h0L416,82.44a.61.61,0,0,0-.11.35l0,16.83a.57.57,0,0,0,.26.5.6.6,0,0,0,.57.07l15.69-6a.85.85,0,0,0,.36-.29l27.61-39.88a.59.59,0,0,0,.1-.46.61.61,0,0,0-.26-.4L444.44,42.35A.64.64,0,0,0,444.1,42.24Zm-2.1-.83Z" transform="translate(-7.28 -4.85)"/><path class="cls-4" d="M420.76,82.59a1.93,1.93,0,0,1-1.59-3l18.72-27a1.93,1.93,0,1,1,3.18,2.2l-18.72,27A1.92,1.92,0,0,1,420.76,82.59Z" transform="translate(-7.28 -4.85)"/><circle class="cls-4" cx="436.05" cy="43.2" r="1.93"/><polygon class="cls-6" points="367.2 19.13 361.19 18.12 356.96 22.5 356.06 16.47 350.59 13.79 356.05 11.08 356.9 5.05 361.17 9.4 367.17 8.35 364.35 13.75 367.2 19.13"/><polygon class="cls-6" points="394.12 21.01 391.69 18.55 388.29 19.15 389.88 16.08 388.25 13.03 391.66 13.6 394.06 11.11 394.58 14.53 397.69 16.04 394.6 17.59 394.12 21.01"/><polygon class="cls-6" points="430.02 16.86 427.24 13.58 422.96 14.02 425.22 10.36 423.49 6.43 427.66 7.44 430.87 4.58 431.19 8.86 434.91 11.03 430.93 12.66 430.02 16.86"/><circle class="cls-9" cx="397.57" cy="1.29" r="1.29"/><polygon class="cls-6" points="356.96 118.81 353.69 118.62 351.67 121.21 350.84 118.04 347.75 116.93 350.51 115.15 350.62 111.88 353.16 113.95 356.31 113.04 355.12 116.09 356.96 118.81"/><polygon class="cls-6" points="446.62 119 444.2 116.54 440.79 117.14 442.38 114.07 440.76 111.02 444.17 111.59 446.57 109.1 447.09 112.52 450.19 114.03 447.1 115.58 446.62 119"/><g class="cls-2"><circle class="cls-3" cx="227.88" cy="71.19" r="61.14"/></g><g class="cls-2"><circle class="cls-3" cx="236.71" cy="65.08" r="61.14"/></g><rect class="cls-4" x="175.66" y="28.67" width="118.36" height="76.82" rx="13.67" ry="13.67"/><path class="cls-5" d="M294.69,112.27H189.54a8.55,8.55,0,0,1-8.54-8.54V40.13a8.56,8.56,0,0,1,8.54-8.55H294.69a8.56,8.56,0,0,1,8.54,8.55v63.6A8.55,8.55,0,0,1,294.69,112.27ZM189.54,35.45a4.68,4.68,0,0,0-4.67,4.68v63.6a4.68,4.68,0,0,0,4.67,4.67H294.69a4.67,4.67,0,0,0,4.67-4.67V40.13a4.68,4.68,0,0,0-4.67-4.68Z" transform="translate(-7.28 -4.85)"/><path class="cls-6" d="M186.88,30.23h95.83a9.38,9.38,0,0,1,9.38,9.38v3.17a0,0,0,0,1,0,0H177.5a0,0,0,0,1,0,0V39.61A9.38,9.38,0,0,1,186.88,30.23Z"/><circle class="cls-4" cx="277.25" cy="35.72" r="1.65"/><circle class="cls-4" cx="282.07" cy="35.72" r="1.65"/><circle class="cls-4" cx="286.88" cy="35.72" r="1.65"/><rect class="cls-7" x="180.36" y="45.91" width="34.3" height="27.44"/><rect class="cls-7" x="180.36" y="75.7" width="34.3" height="25.08"/><rect class="cls-3" x="217.69" y="45.91" width="34.3" height="54.87"/><rect class="cls-7" x="255.02" y="45.91" width="34.3" height="35.27"/><rect class="cls-7" x="255.02" y="83.54" width="34.3" height="17.24"/><circle class="cls-6" cx="234.84" cy="110.77" r="2.55"/><line class="cls-4" x1="202.31" y1="115.67" x2="267.76" y2="115.67"/><path class="cls-5" d="M275,122.46H209.59a1.94,1.94,0,1,1,0-3.87H275a1.94,1.94,0,0,1,0,3.87Z" transform="translate(-7.28 -4.85)"/><g class="cls-12"><path class="cls-4" d="M299.9,37.13H184.38L172.83,62.44h-.05a11.55,11.55,0,0,0,23.1,0,11.55,11.55,0,0,0,23.1,0,11.55,11.55,0,0,0,23.1,0,11.55,11.55,0,0,0,23.1,0,11.55,11.55,0,0,0,23.1,0h.06a11.55,11.55,0,0,0,23.1,0h0Z" transform="translate(-7.28 -4.85)"/><path class="cls-5" d="M299.88,75.71a13.45,13.45,0,0,1-11.57-6.58,13.48,13.48,0,0,1-23.13.05,13.48,13.48,0,0,1-23.1,0,13.48,13.48,0,0,1-23.1,0,13.48,13.48,0,0,1-23.1,0,13.46,13.46,0,0,1-25-6.73,2,2,0,0,1,.4-1.2l11.38-24.94a1.88,1.88,0,0,1,1.71-1.11H299.9a1.88,1.88,0,0,1,1.71,1.11l11.55,25.31a2,2,0,0,1,.16,1.11A13.42,13.42,0,0,1,299.88,75.71Zm-11.6-15.2h.06a1.91,1.91,0,0,1,1.88,1.92,9.67,9.67,0,0,0,19.32.38L298.7,39.06H185.59L174.68,63A9.67,9.67,0,0,0,194,62.43a1.91,1.91,0,0,1,1.89-1.92h0a1.91,1.91,0,0,1,1.89,1.92,9.66,9.66,0,0,0,19.32,0,1.89,1.89,0,1,1,3.78,0,9.66,9.66,0,0,0,19.32,0,1.89,1.89,0,1,1,3.78,0,9.66,9.66,0,0,0,19.32,0,1.89,1.89,0,1,1,3.78,0,9.66,9.66,0,0,0,19.32,0A1.91,1.91,0,0,1,288.28,60.51Z" transform="translate(-7.28 -4.85)"/></g><path class="cls-4" d="M299.9,33.26H184.38L172.83,58.57h-.05a11.55,11.55,0,0,0,23.1,0,11.55,11.55,0,0,0,23.1,0,11.55,11.55,0,0,0,23.1,0,11.55,11.55,0,0,0,23.1,0,11.55,11.55,0,0,0,23.1,0h.06a11.55,11.55,0,0,0,23.1,0h0Z" transform="translate(-7.28 -4.85)"/><path class="cls-5" d="M299.88,71.85a13.48,13.48,0,0,1-11.57-6.58,13.47,13.47,0,0,1-23.13,0,13.47,13.47,0,0,1-23.1,0,13.47,13.47,0,0,1-23.1,0,13.47,13.47,0,0,1-23.1,0,13.45,13.45,0,0,1-25-6.73,2,2,0,0,1,.4-1.2l11.38-24.94a1.88,1.88,0,0,1,1.71-1.11H299.9a1.88,1.88,0,0,1,1.71,1.11l11.55,25.31a2,2,0,0,1,.16,1.11A13.43,13.43,0,0,1,299.88,71.85Zm-11.6-15.21h.06a1.91,1.91,0,0,1,1.88,1.92,9.67,9.67,0,0,0,19.32.38L298.7,35.19H185.59L174.68,59.08A9.67,9.67,0,0,0,194,58.56a1.91,1.91,0,0,1,1.89-1.92h0a1.91,1.91,0,0,1,1.89,1.92,9.66,9.66,0,0,0,19.32,0,1.89,1.89,0,1,1,3.78,0,9.66,9.66,0,0,0,19.32,0,1.89,1.89,0,1,1,3.78,0,9.66,9.66,0,0,0,19.32,0,1.89,1.89,0,1,1,3.78,0,9.66,9.66,0,0,0,19.32,0A1.91,1.91,0,0,1,288.28,56.64Z" transform="translate(-7.28 -4.85)"/><path class="cls-4" d="M172.79,58.57a11.55,11.55,0,0,0,23.1,0Z" transform="translate(-7.28 -4.85)"/><path class="cls-10" d="M195.89,58.57a11.55,11.55,0,0,0,23.1,0Z" transform="translate(-7.28 -4.85)"/><path class="cls-4" d="M219,58.57a11.55,11.55,0,0,0,23.1,0Z" transform="translate(-7.28 -4.85)"/><path class="cls-10" d="M242.09,58.57a11.55,11.55,0,0,0,23.1,0Z" transform="translate(-7.28 -4.85)"/><path class="cls-4" d="M265.19,58.57a11.55,11.55,0,0,0,23.1,0Z" transform="translate(-7.28 -4.85)"/><path class="cls-10" d="M288.34,58.51a11.55,11.55,0,0,0,23.1,0Z" transform="translate(-7.28 -4.85)"/><polygon class="cls-10" points="188.63 53.72 165.53 53.72 177.08 29.03 196.33 29.03 188.63 53.72"/><polygon class="cls-4" points="211.74 53.72 188.63 53.72 196.33 29.03 215.59 29.03 211.74 53.72"/><polygon class="cls-10" points="234.84 53.72 211.74 53.72 215.59 29.03 234.84 29.03 234.84 53.72"/><polygon class="cls-4" points="257.94 53.72 234.84 53.72 234.84 29.03 254.09 29.03 257.94 53.72"/><polygon class="cls-10" points="281.05 53.72 257.94 53.72 254.09 29.03 273.34 29.03 281.05 53.72"/><polygon class="cls-4" points="304.15 53.72 281.05 53.72 273.34 29.03 292.6 29.03 304.15 53.72"/><circle class="cls-6" cx="193.31" cy="15.56" r="1.41"/><circle class="cls-6" cx="218.94" cy="20.09" r="2.26"/><circle class="cls-6" cx="229.98" cy="3.94" r="3.59"/><circle class="cls-6" cx="272.17" cy="12.1" r="0.88"/><circle class="cls-5" cx="257.91" cy="17.73" r="1.57"/></g></g></svg>