<svg id="Capa_1" data-name="Capa 1" xmlns="http://www.w3.org/2000/svg" viewBox="0 0 245.35 321.68"><defs><style>.cls-1,.cls-2,.cls-3{fill:#2b2b54;}.cls-1{opacity:0.15;}.cls-2{opacity:0;}.cls-4{fill:#5a9e97;}</style></defs><title>skill</title><circle class="cls-1" cx="122.68" cy="132.84" r="104.38"/><circle class="cls-2" cx="122.68" cy="132.84" r="104.38"/><path class="cls-3" d="M106.22,314.27l-6.08-15.55-6.66,15.62L83.11,287.2h4.07l6.73,18.93,4.5-11.81-2.77-7.12H99.1l7.23,18.54,6.41-18.54h3.74Z"/><path class="cls-3" d="M138.59,287.09v3.35H125.16v7.92h12v3.34h-12v8h13.93v3.39H121.67v-26Z"/><path class="cls-3" d="M160.3,302.08a5.77,5.77,0,0,1,1.29,3.73,6.79,6.79,0,0,1-1.2,4.12,7.06,7.06,0,0,1-3.17,2.41,11.54,11.54,0,0,1-4.3.78h-7.74v-26h6.73a10.13,10.13,0,0,1,6.19,1.64,5.75,5.75,0,0,1,2.2,4.91,6.84,6.84,0,0,1-.92,3.58,6.33,6.33,0,0,1-2.61,2.4A8.2,8.2,0,0,1,160.3,302.08Zm-11.63-3.62h4a3.85,3.85,0,0,0,3-1.15,4.29,4.29,0,0,0,1-2.95,3.53,3.53,0,0,0-1.23-2.95,5.34,5.34,0,0,0-3.42-1h-3.38Zm7.85,10.39a3.44,3.44,0,0,0,1.47-3,3.28,3.28,0,0,0-1.6-3,7.32,7.32,0,0,0-3.87-1h-3.85v8h4.1A6.48,6.48,0,0,0,156.52,308.85Z"/><path class="cls-3" d="M78.93,129.23a14,14,0,0,1,5.53,5.57,16.81,16.81,0,0,1,2,8.19,16.35,16.35,0,0,1-2,8.15,14.49,14.49,0,0,1-5.64,5.64,16.35,16.35,0,0,1-8.15,2q-8.82,0-13.62-6.23t-4.79-17.85q0-12.73,4.93-19.81A15.89,15.89,0,0,1,71,107.85a21.64,21.64,0,0,1,8.22,1.64,22.09,22.09,0,0,1,7.18,4.73l-1.82,3.43a28.73,28.73,0,0,0-6.86-4.55A16.37,16.37,0,0,0,71,111.63q-6.8,0-10.61,6.09t-3.81,17v1.89a13.27,13.27,0,0,1,5.39-6.86,15.71,15.71,0,0,1,8.82-2.52A16.5,16.5,0,0,1,78.93,129.23Zm-.11,22.51A12,12,0,0,0,82,143a11.8,11.8,0,0,0-3.22-8.61,11.25,11.25,0,0,0-8.4-3.29,12.94,12.94,0,0,0-6.27,1.5,10.76,10.76,0,0,0-4.3,4.24A12.27,12.27,0,0,0,58.28,143a11.65,11.65,0,0,0,3.39,8.71A12,12,0,0,0,70.46,155,11.12,11.12,0,0,0,78.82,151.74Z"/><path class="cls-3" d="M95,108.41h32.06v3.22l-23.66,46.62H98.74l23.52-46.06H95Z"/><path class="cls-3" d="M139.41,134.52q-3.09-3.86-3.08-11.41t3.08-11.38a10.44,10.44,0,0,1,8.61-3.81,10.63,10.63,0,0,1,8.71,3.81q3.12,3.83,3.12,11.38t-3.15,11.41a10.63,10.63,0,0,1-8.68,3.85A10.41,10.41,0,0,1,139.41,134.52Zm14.38-2.38c1.24-1.91,1.86-4.93,1.86-9s-.62-7.06-1.86-9a7.09,7.09,0,0,0-11.44,0q-1.89,2.91-1.89,9c0,4.1.61,7.12,1.85,9a7.17,7.17,0,0,0,11.48,0Zm-1.22,26.11h-4.48l28.77-49.84h4.48Zm20.12-3.36q-3.12-3.85-3.11-11.41t3.08-11.41a11.86,11.86,0,0,1,17.36,0q3.07,3.78,3.08,11.41T190,154.89a11.63,11.63,0,0,1-17.29,0ZM187,152.51c1.24-1.91,1.86-4.93,1.86-9s-.62-7-1.86-9a7.11,7.11,0,0,0-11.41,0c-1.24,1.91-1.85,4.9-1.85,9s.61,7.12,1.85,9a7.11,7.11,0,0,0,11.41,0Z"/><path class="cls-4" d="M120.52,228.22h0v18h0A112.67,112.67,0,0,0,179,230a9,9,0,0,0,2.65-13h0a9,9,0,0,0-11.91-2.42A94.78,94.78,0,0,1,120.52,228.22Z"/><path class="cls-4" d="M29.8,162.32l-17.11,5.56A113.83,113.83,0,0,0,53.9,224.53L64.48,210A95.76,95.76,0,0,1,29.8,162.32Z"/><path class="cls-4" d="M64.48,210,53.9,224.53a112.81,112.81,0,0,0,66.62,21.69v-18A94.85,94.85,0,0,1,64.48,210Z"/><path class="cls-4" d="M64.48,55.71,53.9,41.16A113.79,113.79,0,0,0,12.69,97.81l17.11,5.56A95.79,95.79,0,0,1,64.48,55.71Z"/><path class="cls-4" d="M120.52,28.85h0a9,9,0,0,0-9.73-9A112.69,112.69,0,0,0,53.9,41.16L64.48,55.71a94.85,94.85,0,0,1,47.88-17.9A9,9,0,0,0,120.52,28.85Z"/><path class="cls-4" d="M25.14,132.84a95.1,95.1,0,0,1,4.66-29.47L12.69,97.81a113.36,113.36,0,0,0,0,70.07l17.11-5.56A95.21,95.21,0,0,1,25.14,132.84Z"/></svg>